<?xml version="1.0" standalone="no"?>
<!DOCTYPE svg PUBLIC "-//W3C//DTD SVG 1.1//EN" "http://www.w3.org/Graphics/SVG/1.1/DTD/svg11.dtd" >
<svg>
<metadata>
Created by FontForge 20130207 at Mon Apr 15 09:23:50 2013
 By Eric Taylor
Copyright (C) 2004, 2009 Hoefler &#38; Frere-Jones. http://www.typography.com
</metadata>
<defs>
<font id="Sentinel-Book" horiz-adv-x="711" >
  <font-face 
    font-family="Sentinel Book"
    font-weight="325"
    font-stretch="normal"
    units-per-em="1000"
    panose-1="0 0 0 0 0 0 0 0 0 0"
    ascent="800"
    descent="-200"
    x-height="450"
    cap-height="652"
    bbox="-51.0588 -293 1124 1085.02"
    underline-thickness="50"
    underline-position="-50"
    unicode-range="U+0020-FB04"
  />
<missing-glyph horiz-adv-x="500" 
d="M250 240l-179 -390h358zM450 676l-172 -376l172 -376v752zM50 -76l172 376l-172 376v-752zM71 750l179 -390l179 390h-358zM0 -200v1000h500v-1000h-500z" />
    <glyph glyph-name="f_f" unicode="ff" horiz-adv-x="615" 
d="M390 447v29q0 36 6 66q-4 -1 -20 -1t-31 14q-15 15 -15 39t19 38q-19 20 -65 20q-96 0 -97 -169v-36h203zM282 693q122 0 148 -69q49 69 144 69q54 0 90 -24q36 -23 35 -55t-15 -48t-36 -17q-22 0 -37 14q-14 14 -14 37t16 39q-14 13 -56 13q-90 0 -90 -172v-33h133v-49
h-133v-346h105v-52h-248v52h66v346h-203v-346h77v-52h-228v52h73v346h-91v49h91v27q1 113 55 166t118 53z" />
    <glyph glyph-name="fi" unicode="fi" horiz-adv-x="572" 
d="M393 398h-206v-346h72v-52h-224v52h74v346h-91v49h91v26q-1 115 57 167t133 53q75 -1 119 -31t45 -66q0 -66 -52 -66q-24 0 -38 14t-14 38t21 42q-25 27 -76 27q-117 0 -117 -163v-41h283v-395h85v-52h-230v52h68v346z" />
    <glyph glyph-name="fl" unicode="fl" horiz-adv-x="581" 
d="M378 547q-53 0 -53 52q0 18 16 37q-21 16 -63 16q-91 0 -91 -172v-33h213v105q-12 -5 -22 -5zM35 0v52h74v346h-91v49h91v29q-1 111 53 164t121 53t104 -23l91 21v-639h84v-52h-230v52h68v346h-213v-346h79v-52h-231z" />
    <glyph glyph-name="f_f_i" unicode="ffi" horiz-adv-x="853" 
d="M390 473q0 41 7 69q-5 -1 -21 -1t-31 14q-15 15 -15 39t19 38q-19 20 -65 20q-96 0 -97 -169v-36h203v26zM467 488v-41h284v-395h84v-52h-229v52h67v346h-206v-346h73v-52h-216v52h66v346h-203v-346h77v-52h-228v52h73v346h-91v49h91v27q1 113 55 166t118 53
q124 0 149 -72q53 72 160 72q64 -1 108 -31t44 -66q0 -66 -52 -66q-23 0 -37 14t-15 38q0 24 21 42q-23 27 -75 27q-118 0 -118 -163z" />
    <glyph glyph-name="f_f_l" unicode="ffl" horiz-adv-x="861" 
d="M390 447v29q0 36 6 66q-4 -1 -20 -1t-31 14q-15 15 -15 39t19 38q-19 20 -65 20q-96 0 -97 -169v-36h203zM467 480v-33h214v106q-11 -6 -29 -6t-32 14t-15 36q0 22 17 39q-22 16 -64 16q-91 0 -91 -172zM612 0v52h69v346h-214v-346h79v-52h-222v52h66v346h-203v-346h77
v-52h-228v52h73v346h-91v49h91v27q1 113 55 166t118 53q122 0 148 -69q49 69 144 69q56 0 93 -23l91 21v-639h85v-52h-231z" />
    <glyph glyph-name="f_b" unicode="fb" horiz-adv-x="834" 
d="M375 547q-53 0 -53 52q0 18 16 37q-22 16 -62 16q-90 0 -89 -170v-35h201v102q-4 -2 -13 -2zM592 44q52 0 84 48q31 48 31 134q-1 84 -31 132t-84 48t-90 -54q-38 -54 -38 -136q0 -80 38 -126t90 -46zM608 -8q-101 0 -150 102l-29 -99h-41v403h-201v-346h90v-52h-242v52
h74v346h-91v49h91v29q0 111 53 164t118 53t103 -22l83 20v-338q54 105 152 105q68 0 111 -43q63 -63 63 -185t-68 -190q-48 -48 -116 -48z" />
    <glyph glyph-name="f_h" unicode="fh" horiz-adv-x="859" 
d="M378 547q-53 0 -53 52q0 18 16 37q-21 16 -63 16q-91 0 -91 -172v-33h213v105q-12 -5 -22 -5zM691 280q0 114 -83 114q-50 0 -90 -46t-40 -100v-196h68v-52h-214v52h68v346h-213v-346h79v-52h-231v52h74v346h-91v49h91v29q-1 111 53 164t121 53t104 -23l91 21v-355
q69 121 169 121q57 0 89 -37t33 -105v-263h74v-52h-221v52h69v228z" />
    <glyph glyph-name="f_j" unicode="fj" horiz-adv-x="551" 
d="M470 447v-429q0 -88 -38 -134t-94 -47q-58 1 -88 23t-31 50t15 46q16 17 39 17t37 -14t14 -36t-18 -38q11 -7 27 -7q60 0 60 100v420h-206v-346h77v-52h-229v52h74v346h-91v49h91v26q-1 115 57 167t133 53q75 -1 119 -31t45 -66q0 -66 -52 -66q-24 0 -38 14t-14 38t21 42
q-25 27 -76 27q-117 0 -117 -163v-41h283z" />
    <glyph glyph-name="f_k" unicode="fk" horiz-adv-x="825" 
d="M378 547q-53 0 -53 52q0 18 16 37q-21 16 -63 16q-91 0 -91 -172v-33h213v105q-12 -5 -22 -5zM35 0v52h74v346h-91v49h91v29q-1 111 53 164t121 53t104 -23l91 21v-485l182 193h-75v51h208v-52h-68l-123 -125l156 -221h57v-52h-205v51h60l-119 173l-73 -74v-98h62v-52
h-208v52h68v346h-213v-346h79v-52h-231z" />
    <glyph glyph-name="f_f_b" unicode="ffb" horiz-adv-x="1118" 
d="M655 547q-53 0 -53 52q0 18 16 37q-22 16 -62 16q-90 0 -89 -170v-35h206v103q-9 -3 -18 -3zM390 447v29q0 36 6 66q-4 -1 -20 -1t-31 14q-15 15 -15 39t19 38q-19 20 -65 20q-96 0 -97 -169v-36h203zM876 44q52 0 84 48q31 48 31 134t-30 133t-84 47q-53 0 -91 -54
t-38 -136q0 -80 38 -126t90 -46zM1076 230q0 -122 -68 -190q-46 -48 -116 -48q-102 0 -149 102l-29 -99h-41v403h-206v-346h90v-52h-233v52h66v346h-203v-346h77v-52h-228v52h73v346h-91v49h91v27q1 113 55 166t118 53q122 0 148 -69q49 69 142 69q57 0 92 -23l86 21v-338
q55 105 153 105q67 0 110 -43q63 -63 63 -185z" />
    <glyph glyph-name="f_f_h" unicode="ffh" horiz-adv-x="1139" 
d="M390 476q0 36 6 66q-4 -1 -20 -1t-31 14q-15 15 -15 39t19 38q-19 20 -65 20q-96 0 -97 -169v-36h203v29zM467 480v-33h214v106q-11 -6 -29 -6t-32 14t-15 36q0 22 17 39q-22 16 -64 16q-91 0 -91 -172zM971 280q0 114 -82 114q-51 0 -91 -46t-40 -100v-196h69v-52h-215
v52h69v346h-214v-346h79v-52h-222v52h66v346h-203v-346h77v-52h-228v52h73v346h-91v49h91v27q1 113 55 166t118 53q122 0 148 -69q49 69 144 69q56 0 93 -23l91 21v-355q70 121 169 121q58 0 90 -37t32 -105v-263h75v-52h-221v52h68v228z" />
    <glyph glyph-name="f_f_j" unicode="ffj" horiz-adv-x="831" 
d="M390 473q0 41 7 69q-5 -1 -21 -1t-31 14q-15 15 -15 39t19 38q-19 20 -65 20q-96 0 -97 -169v-36h203v26zM751 447v-429q1 -88 -37 -134t-96 -47q-58 1 -88 23t-31 50t15 46q16 17 39 17t37 -14t15 -35q0 -21 -18 -39q10 -7 26 -7q60 0 60 100v420h-206v-346h77v-52h-220
v52h66v346h-203v-346h77v-52h-228v52h73v346h-91v49h91v27q1 113 55 166t118 53q124 0 149 -72q53 72 160 72q64 -1 108 -31t44 -66q0 -66 -52 -66q-23 0 -37 14t-15 38q0 24 21 42q-23 27 -75 27q-118 0 -118 -163v-41h284z" />
    <glyph glyph-name="f_f_k" unicode="ffk" horiz-adv-x="1106" 
d="M390 476q0 36 6 66q-4 -1 -20 -1t-31 14q-15 15 -15 39t19 38q-19 20 -65 20q-96 0 -97 -169v-36h203v29zM467 480v-33h214v106q-11 -6 -29 -6t-32 14t-15 36q0 22 17 39q-22 16 -64 16q-91 0 -91 -172zM866 399v51h207v-52h-68l-122 -125l155 -221h57v-52h-205v51h60
l-119 173l-73 -74v-98h63v-52h-209v52h69v346h-214v-346h79v-52h-222v52h66v346h-203v-346h77v-52h-228v52h73v346h-91v49h91v27q1 113 55 166t118 53q122 0 148 -69q49 69 144 69q56 0 93 -23l91 21v-485l183 193h-75z" />
    <glyph glyph-name=".notdef" horiz-adv-x="500" 
d="M250 240l-179 -390h358zM450 676l-172 -376l172 -376v752zM50 -76l172 376l-172 376v-752zM71 750l179 -390l179 390h-358zM0 -200v1000h500v-1000h-500z" />
    <glyph glyph-name=".null" horiz-adv-x="0" 
 />
    <glyph glyph-name="nonmarkingreturn" horiz-adv-x="333" 
 />
    <glyph glyph-name="space" unicode=" " horiz-adv-x="178" 
 />
    <glyph glyph-name="exclam" unicode="!" horiz-adv-x="266" 
d="M133 -15q-25 1 -41 17t-16 40t16 40t41 16t41 -16t16 -40t-16 -40t-41 -17zM133 678q51 0 51 -61l-34 -431h-33l-35 431q0 61 51 61z" />
    <glyph glyph-name="quotedbl" unicode="&#x22;" horiz-adv-x="378" 
d="M146 656q20 0 34 -10t14 -24t-7 -33q-24 -48 -52 -94l-50 -83l-27 12l25 97q21 87 32 111t31 24zM302 656q20 0 34 -10t14 -32t-59 -119l-50 -83l-27 12l25 97q21 87 32 111t31 24z" />
    <glyph glyph-name="numbersign" unicode="#" horiz-adv-x="663" 
d="M433 414h-165l-39 -203h164zM71 414v50h148l38 193h59l-38 -193h165l39 193h59l-39 -193h130v-50h-139l-40 -203h138v-51h-148l-39 -200h-60l40 200h-165l-39 -200h-60l39 200h-128v51h138l40 203h-138z" />
    <glyph glyph-name="dollar" unicode="$" horiz-adv-x="534" 
d="M138 476q0 -39 24 -63t88 -44v215q-54 -7 -83 -38t-29 -70zM415 154q-1 42 -27 68t-91 48v-226q55 5 87 36q32 32 31 74zM481 514q1 -70 -53 -71q-54 0 -54 57q0 28 31 43q-34 38 -108 42v-230q103 -31 145 -69t42 -106t-48 -120q-48 -53 -139 -60v-79h-47v79
q-89 5 -147 44t-58 88q1 26 17 45t42 19t40 -16q16 -16 16 -46q0 -28 -32 -47q35 -37 122 -44v241q-96 30 -140 66t-44 102t50 116t134 59v70h47v-69q78 -3 131 -40q53 -36 53 -74z" />
    <glyph glyph-name="percent" unicode="%" horiz-adv-x="779" 
d="M174 309q51 -1 88 61t37 130q0 18 -5 35q-26 13 -55 39q-33 -2 -63 -32q-62 -64 -62 -148q0 -85 60 -85zM507 100q0 -72 60 -72q51 0 88 62t37 134t-59 70q-51 -1 -89 -62q-38 -60 -37 -132zM558 -14q-56 0 -90 36t-33 110q0 72 58 140q57 68 121 68q122 0 123 -119
t-81 -195q-42 -40 -98 -40zM164 266q-56 0 -89 36t-33 110t58 140q58 68 127 68t98 -45q39 -20 91 -20q96 0 163 79h50l-428 -660h-66l392 578l-3 3q-52 -42 -104 -42t-77 8l1 -20q0 -119 -82 -195q-42 -40 -98 -40z" />
    <glyph glyph-name="ampersand" unicode="&#x26;" horiz-adv-x="719" 
d="M224 495q0 -60 72 -129q90 52 90 128q0 38 -20 62t-58 24t-61 -24t-23 -61zM138 163q0 -49 35 -85t101 -35q66 0 134 69q-56 97 -159 196q-111 -53 -111 -145zM52 147q0 122 165 190q-65 69 -65 135t47 109t113 43t106 -36q39 -36 39 -87q1 -50 -31 -88t-101 -74
q85 -82 140 -174q58 71 94 163h-79v49h212v-49h-77q-50 -115 -122 -202q29 -47 47 -64t41 -17q36 0 63 62l36 -16q-38 -107 -123 -107q-38 0 -66 20t-58 69q-84 -89 -182 -89q-99 0 -149 48t-50 115z" />
    <glyph glyph-name="quotesingle" unicode="'" horiz-adv-x="224" 
d="M146 656q20 0 34 -10t14 -24t-7 -33q-24 -48 -52 -94l-50 -83l-27 12l25 97q21 87 32 111t31 24z" />
    <glyph glyph-name="parenleft" unicode="(" horiz-adv-x="361" 
d="M70 284q0 156 73 266t199 174l24 -37q-214 -133 -214 -403t214 -404l-24 -37q-272 140 -272 441z" />
    <glyph glyph-name="parenright" unicode=")" horiz-adv-x="361" 
d="M291 283q0 -155 -73 -265t-199 -175l-24 37q214 134 214 404t-214 403l24 37q272 -140 272 -441z" />
    <glyph glyph-name="asterisk" unicode="*" horiz-adv-x="408" 
d="M337 496l-111 26l-7 -10l20 -30q34 -51 39 -68q13 -38 -19 -48t-45 27q-9 25 -9 114l-13 4q-6 -7 -31 -40t-50 -52q-24 -19 -48 13q-23 32 43 60q20 8 44 18q24 9 34 14v12q-93 34 -107 44q-33 22 -9 55t72 -21q14 -16 30 -38q17 -22 22 -28l12 4q1 11 2 55q2 103 52 87
q45 -14 6 -76q-12 -18 -26 -40t-19 -30l7 -11q93 27 112 27q39 0 39 -34t-40 -34z" />
    <glyph glyph-name="plus" unicode="+" horiz-adv-x="524" 
d="M236 67v186h-182v49h182v186h53v-186h181v-49h-181v-186h-53z" />
    <glyph glyph-name="comma" unicode="," horiz-adv-x="214" 
d="M92 -7q-16 0 -28 14q-13 14 -13 36q-1 23 15 39t42 16t43 -20t17 -54q0 -104 -136 -165l-15 31q95 45 106 107l-4 2q-11 -6 -27 -6z" />
    <glyph glyph-name="hyphen" unicode="-" horiz-adv-x="366" 
d="M55 210v65h256v-65h-256z" />
    <glyph glyph-name="period" unicode="." horiz-adv-x="214" 
d="M107 -15q-25 1 -41 17t-16 40t16 40t41 16t41 -16t16 -40t-16 -40t-41 -17z" />
    <glyph glyph-name="slash" unicode="/" horiz-adv-x="418" 
d="M-48 -203l386 901h61l-386 -901h-61z" />
    <glyph glyph-name="zero" unicode="0" horiz-adv-x="558" 
d="M281 33q142 0 142 280q0 133 -37 207t-110 74q-142 0 -142 -280q0 -130 38 -206t109 -75zM277 -16q-109 0 -171 92t-62 236q0 143 64 237t172 94t171 -92t63 -235q0 -144 -64 -238t-173 -94z" />
    <glyph glyph-name="one" unicode="1" horiz-adv-x="448" 
d="M56 0v52h145v469q-34 -16 -79 -16t-69 8v42q59 -1 107 20t70 60h53v-583h140v-52h-367z" />
    <glyph glyph-name="two" unicode="2" horiz-adv-x="545" 
d="M48 55q0 103 196 224q82 49 116 89t33 98q0 58 -35 93q-36 36 -88 36q-99 0 -136 -70q47 -13 47 -59q0 -24 -16 -42q-17 -18 -43 -18t-44 20t-18 53q0 63 62 113t156 51q94 -1 148 -53t54 -123t-46 -121t-144 -99q-149 -75 -175 -152l2 -3q39 22 81 22t96 -26t84 -27
q28 0 48 31t39 108l39 -3q-20 -213 -144 -213q-34 0 -70 22t-67 42q-31 21 -51 21t-30 -4q9 -14 9 -33q-1 -20 -13 -34t-36 -14t-39 20t-15 51z" />
    <glyph glyph-name="three" unicode="3" horiz-adv-x="523" 
d="M293 324q180 -20 180 -160q-1 -70 -63 -126q-62 -54 -157 -54t-155 40t-60 98q0 28 18 48t44 19t42 -17t15 -45q0 -29 -32 -51q41 -44 113 -44t110 37t37 95q0 135 -177 135h-29v49h24q170 0 170 133q0 52 -33 83q-32 31 -102 31t-109 -50q41 -15 41 -47t-15 -50t-41 -17
t-42 19q-18 18 -18 48q0 57 58 101t148 44q90 1 146 -45q55 -46 55 -110q0 -129 -168 -162v-2z" />
    <glyph glyph-name="four" unicode="4" horiz-adv-x="554" 
d="M401 51h98v-51h-277v51h99v129h-294v54l296 404h78v-405h131v-53h-131v-129zM322 233v316h-3l-228 -316h231z" />
    <glyph glyph-name="five" unicode="5" horiz-adv-x="514" 
d="M386 200q0 150 -127 150q-75 0 -136 -59l-41 12l22 325l13 10q93 -37 177 -37t150 36l13 -28q-61 -86 -170 -86q-68 0 -134 27l-13 -195q55 44 141 44q87 0 139 -54q52 -55 52 -141t-60 -153t-152 -67q-94 0 -154 43t-61 103q0 30 18 51q19 21 45 21t40 -16t15 -39
q0 -44 -41 -60q40 -55 114 -55t112 46t38 122z" />
    <glyph glyph-name="six" unicode="6" horiz-adv-x="532" 
d="M139 192q1 -66 39 -112t98 -47q60 1 92 45t31 113q0 69 -32 111q-31 42 -91 43t-98 -43t-39 -110zM413 459q-56 0 -56 63q0 32 40 47q-24 26 -77 26q-86 1 -136 -75t-51 -219q63 94 157 94t144 -54q50 -53 51 -141q0 -88 -56 -152q-57 -64 -159 -64t-162 82t-60 228
t74 248q74 101 198 101q70 0 112 -33t42 -72t-17 -59t-44 -20z" />
    <glyph glyph-name="seven" unicode="7" horiz-adv-x="521" 
d="M206 634q50 0 89 -40t71 -41q31 0 52 10q-14 18 -14 36q0 17 14 31t36 14t35 -15q14 -15 14 -41t-17 -52q-18 -27 -78 -97q-127 -147 -141 -394q-5 -61 -51 -61t-46 53q-2 79 52 199t124 196t94 107l-4 4q-54 -31 -96 -31t-90 22t-76 22q-59 0 -75 -157h-49v230h52l4 -81
h4q29 86 96 86z" />
    <glyph glyph-name="eight" unicode="8" horiz-adv-x="532" 
d="M143 482q-1 -48 37 -80q38 -31 124 -54q94 42 94 131q0 49 -35 83t-94 33t-93 -33t-33 -80zM122 162q0 -56 40 -94t105 -37q63 1 103 37t40 86t-42 79q-42 30 -145 61l-6 1q-95 -38 -95 -133zM65 465q0 74 57 126q58 52 148 52q90 -1 144 -47t53 -111q0 -107 -115 -152
q135 -51 135 -157q0 -80 -64 -136t-161 -56t-156 49t-59 120q0 111 124 160q-106 48 -106 152z" />
    <glyph glyph-name="nine" unicode="9" horiz-adv-x="532" 
d="M393 432q0 68 -38 115q-39 47 -99 47t-92 -45t-31 -117q-1 -72 31 -115t92 -43t98 44q38 46 39 114zM110 172q57 0 57 -62q0 -32 -40 -48q32 -30 88 -30q87 0 135 73t49 213q-63 -93 -157 -93t-144 54t-51 144q0 90 56 155q57 65 159 65q102 1 162 -81t60 -230t-72 -248
t-196 -100q-78 0 -122 34t-44 75q0 39 17 59t43 20z" />
    <glyph glyph-name="colon" unicode=":" horiz-adv-x="218" 
d="M109 -15q-25 1 -41 17t-16 40t16 40t41 16t41 -16t16 -40t-16 -40t-41 -17zM109 284q-25 0 -41 16t-16 40t16 40t41 17q25 -1 41 -17t16 -40t-16 -40t-41 -16z" />
    <glyph glyph-name="semicolon" unicode=";" horiz-adv-x="218" 
d="M92 -7q-16 0 -28 14q-13 14 -13 36q-1 23 15 39t42 16t43 -20t17 -54q0 -104 -136 -165l-15 31q95 45 106 107l-4 2q-11 -6 -27 -6zM110 284q-24 0 -40 16t-16 40t16 40t40 17q24 -1 41 -17t17 -40t-17 -40t-41 -16z" />
    <glyph glyph-name="less" unicode="&#x3c;" horiz-adv-x="516" 
d="M437 72l-357 184v44l357 183v-54l-300 -151l300 -150v-56z" />
    <glyph glyph-name="equal" unicode="=" horiz-adv-x="526" 
d="M57 163v48h411v-48h-411zM57 344v49h411v-49h-411z" />
    <glyph glyph-name="greater" unicode="&#x3e;" horiz-adv-x="516" 
d="M79 483l357 -184v-44l-357 -183v54l300 151l-300 150v56z" />
    <glyph glyph-name="question" unicode="?" horiz-adv-x="430" 
d="M201 -15q-25 1 -41 17t-16 40t16 40t41 16t41 -16t16 -40t-16 -40t-41 -17zM146 516q0 -24 -16 -42t-42 -18t-45 20q-18 20 -18 48q1 62 55 108t139 46t137 -46t51 -106q0 -58 -25 -98q-24 -40 -88 -92q-64 -54 -74 -144h-44q1 101 63 177q33 39 37 46q5 5 15 19
q30 40 30 89q-1 47 -31 79t-74 32q-87 0 -115 -60q45 -11 45 -58z" />
    <glyph glyph-name="at" unicode="@" horiz-adv-x="907" 
d="M333 202q0 -82 62 -82t109 78t47 156q0 79 -67 79q-41 0 -77 -38q-74 -78 -74 -193zM453 -146q-169 0 -281 104t-112 288t124 308t290 124t269 -95q104 -95 104 -235q-1 -140 -67 -214t-155 -74q-55 0 -83 28t-19 81l-5 1q-62 -99 -140 -99q-50 1 -84 37t-34 97
q0 123 88 207q64 61 135 61q35 0 61 -21t32 -61l24 77h65l-76 -245q-44 -122 48 -122q65 0 115 64t49 165q0 138 -89 224t-240 85q-150 0 -258 -115t-108 -278q0 -164 97 -258t251 -94t270 85l20 -31q-123 -94 -291 -94z" />
    <glyph glyph-name="A" unicode="A" horiz-adv-x="672" 
d="M320 559l-106 -277h207l-98 277h-3zM215 52v-52h-219v52h70l238 605h70l222 -605h84v-52h-280v52h103l-65 183h-242l-69 -183h88z" />
    <glyph glyph-name="B" unicode="B" horiz-adv-x="628" 
d="M227 52h100q94 0 135 33t41 99q0 135 -180 135h-96v-267zM227 367h99q147 0 147 126q0 54 -32 81t-111 27h-103v-234zM32 0v52h111v549h-111v51h289q242 0 242 -157q0 -48 -38 -91t-126 -59v-3q95 -6 145 -50t50 -107q0 -185 -272 -185h-290z" />
    <glyph glyph-name="C" unicode="C" horiz-adv-x="675" 
d="M340 -16q-125 0 -209 96t-84 244q1 148 89 246t210 98t192 -79l19 76h52v-247h-46q-66 195 -211 195q-94 1 -152 -73t-57 -210q-1 -136 59 -212t153 -77q93 1 148 59t69 155h56q-14 -129 -88 -200t-200 -71z" />
    <glyph glyph-name="D" unicode="D" horiz-adv-x="704" 
d="M227 52h83q132 0 192 68t61 208q0 140 -63 206t-197 67h-76v-549zM32 0v52h111v549h-111v51h270q175 0 266 -85t91 -233q-1 -148 -89 -240q-88 -94 -262 -94h-276z" />
    <glyph glyph-name="E" unicode="E" horiz-adv-x="657" 
d="M32 0v52h111v549h-111v51h558v-204h-39q-21 100 -37 126t-62 27h-225v-243h99q45 0 58 16t24 84h41v-249h-41q-10 70 -24 87t-58 17h-99v-261h223q52 0 70 29t40 143h39v-224h-567z" />
    <glyph glyph-name="F" unicode="F" horiz-adv-x="634" 
d="M32 0v52h111v549h-111v51h559v-208h-39q-22 101 -42 129t-67 28h-216v-255h92q43 0 57 17t24 85h41v-255h-41q-8 70 -22 89t-59 19h-92v-249h122v-52h-317z" />
    <glyph glyph-name="G" unicode="G" 
d="M342 -16q-130 0 -212 98t-83 242q1 144 87 244t207 100t190 -79l19 76h52v-244h-46q-65 192 -205 192q-97 0 -153 -73t-55 -208q0 -134 57 -212t148 -78t137 61q40 49 40 140v26h-122v52h296v-52h-89v-276h-49l-29 94q-60 -103 -190 -103z" />
    <glyph glyph-name="H" unicode="H" horiz-adv-x="772" 
d="M32 0v52h111v549h-111v51h293v-51h-98v-240h317v240h-97v51h293v-51h-111v-549h111v-52h-293v52h97v262h-317v-262h98v-52h-293z" />
    <glyph glyph-name="I" unicode="I" horiz-adv-x="384" 
d="M39 0v52h110v549h-110v51h306v-51h-111v-549h111v-52h-306z" />
    <glyph glyph-name="J" unicode="J" horiz-adv-x="530" 
d="M220 -16q-86 0 -138 44t-52 106q0 34 20 56t47 22t45 -18t18 -55t-47 -51q28 -52 92 -52q122 0 122 130v435h-107v51h291v-51h-100v-420q0 -93 -52 -145q-53 -52 -139 -52z" />
    <glyph glyph-name="K" unicode="K" horiz-adv-x="717" 
d="M227 52h98v-52h-293v52h111v549h-111v51h293v-51h-98v-305l298 305h-90v51h251v-51h-84l-221 -219l246 -330h80v-52h-274v52h90l-199 273l-97 -96v-177z" />
    <glyph glyph-name="L" unicode="L" horiz-adv-x="606" 
d="M32 652h312v-51h-117v-549h197q43 0 60 33t46 160h39v-245h-537v52h111v549h-111v51z" />
    <glyph glyph-name="M" unicode="M" horiz-adv-x="929" 
d="M34 0v52h104v549h-104v51h244l185 -509h3l189 509h239v-51h-108v-549h108v-52h-281v52h88v545h-6l-229 -598h-36l-228 598h-6v-545h94v-52h-256z" />
    <glyph glyph-name="N" unicode="N" horiz-adv-x="767" 
d="M196 546v-494h100v-52h-262v52h104v549h-104v51h196l350 -506h5v455h-101v51h259v-51h-99v-617h-55l-388 562h-5z" />
    <glyph glyph-name="O" unicode="O" 
d="M356 37q100 -1 156 77q57 78 57 212t-57 210q-56 78 -156 78t-156 -78t-57 -210q1 -133 57 -211t156 -78zM354 -16q-130 0 -218 96q-89 96 -89 244q1 147 91 245t220 98q130 1 218 -95t88 -244t-90 -246t-220 -98z" />
    <glyph glyph-name="P" unicode="P" horiz-adv-x="609" 
d="M227 319h91q165 0 165 147q0 135 -164 135h-92v-282zM32 0v52h111v549h-111v51h284q139 0 200 -52t61 -135t-64 -139t-193 -56h-93v-218h122v-52h-317z" />
    <glyph glyph-name="Q" unicode="Q" 
d="M363 37q49 0 90 23q-29 60 -57 92t-64 31q-36 1 -56 -21t-20 -54q0 -71 107 -71zM337 235q55 0 93 -33t75 -96q64 80 64 216t-57 214q-56 78 -156 78t-156 -78t-57 -216q0 -140 69 -218q0 56 34 94t91 39zM356 -16q-131 0 -220 96t-89 244q1 147 91 245t220 98
q130 1 218 -95t88 -246q0 -88 -34 -160t-93 -118q29 -49 49 -67t43 -18q51 0 66 96h47q-12 -165 -124 -165q-48 0 -81 28t-62 88q-57 -26 -119 -26z" />
    <glyph glyph-name="R" unicode="R" horiz-adv-x="677" 
d="M227 341h118q148 0 148 141q0 119 -135 119h-131v-260zM227 293v-241h110v-52h-305v52h111v549h-111v51h319q121 0 179 -47t59 -113q0 -140 -157 -169v-6q67 -15 96 -49t34 -93l6 -82q4 -46 35 -46q25 0 47 47l34 -16q-34 -89 -105 -89q-100 0 -103 117l-2 79
q-2 59 -27 83t-96 25h-124z" />
    <glyph glyph-name="S" unicode="S" horiz-adv-x="572" 
d="M271 667q97 0 160 -72l20 69h49v-215h-45q-69 171 -196 171q-51 0 -84 -30t-33 -71t10 -61q19 -38 57 -55q39 -17 90 -30t71 -19t50 -17q110 -41 110 -165q0 -76 -60 -132t-164 -56t-180 81l-22 -78h-49v227h45q46 -98 98 -140t118 -42t100 32q36 32 36 72q0 42 -10 62
q-18 38 -60 57t-94 32q-53 14 -77 22q-69 23 -108 62t-39 114t55 129t152 53z" />
    <glyph glyph-name="T" unicode="T" horiz-adv-x="670" 
d="M178 0v52h115v553h-89q-55 -1 -74 -31t-46 -148h-38v226h578v-226h-38q-27 118 -46 148t-75 31h-88v-553h115v-52h-314z" />
    <glyph glyph-name="U" unicode="U" horiz-adv-x="734" 
d="M390 43q173 0 173 200v358h-101v51h251v-51h-92v-395q-1 -98 -67 -160t-188 -62t-185 58t-63 155v404h-96v51h281v-51h-101v-382q0 -92 47 -134t141 -42z" />
    <glyph glyph-name="V" unicode="V" horiz-adv-x="678" 
d="M-4 601v51h280v-51h-103l180 -500h6l192 500h-88v51h219v-51h-70l-240 -605h-65l-227 605h-84z" />
    <glyph glyph-name="W" unicode="W" horiz-adv-x="984" 
d="M652 601h-105l143 -492h5l159 492h-88v51h218v-51h-70l-204 -605h-71l-138 464l-159 -464h-70l-190 605h-85v51h277v-51h-101l150 -492h5l146 435l-16 57h-84v51h278v-51z" />
    <glyph glyph-name="X" unicode="X" horiz-adv-x="672" 
d="M406 601v51h244v-51h-81l-187 -260l194 -289h87v-52h-276v52h90l-153 235l-166 -235h95v-52h-243v52h81l199 275l-184 274h-88v51h277v-51h-89l141 -220l153 220h-94z" />
    <glyph glyph-name="Y" unicode="Y" horiz-adv-x="637" 
d="M415 601v51h221v-51h-77l-199 -326v-223h101v-52h-286v52h100v222l-187 327h-82v51h272v-51h-90l150 -273l161 273h-84z" />
    <glyph glyph-name="Z" unicode="Z" horiz-adv-x="609" 
d="M39 0v37l417 564h-250q-32 0 -47 -10q-27 -18 -60 -162h-40v223h506v-36l-414 -564h270q31 0 52 16t54 163h39v-231h-527z" />
    <glyph glyph-name="bracketleft" unicode="[" horiz-adv-x="338" 
d="M89 -152v872h249v-49h-171v-774h171v-49h-249z" />
    <glyph glyph-name="backslash" unicode="\" horiz-adv-x="418" 
d="M405 -203l-386 901h61l386 -901h-61z" />
    <glyph glyph-name="bracketright" unicode="]" horiz-adv-x="338" 
d="M249 720v-872h-249v49h171v774h-171v49h249z" />
    <glyph glyph-name="asciicircum" unicode="^" horiz-adv-x="333" 
d="M30 512l118 197h40l114 -197h-40l-96 116l-97 -116h-39z" />
    <glyph glyph-name="underscore" unicode="_" horiz-adv-x="440" 
d="M-2 0v54h444v-54h-444z" />
    <glyph glyph-name="grave" unicode="`" horiz-adv-x="238" 
d="M24 684q0 40 38 39q31 0 58 -70l50 -126h-38l-65 83q-43 56 -43 74z" />
    <glyph glyph-name="a" unicode="a" horiz-adv-x="483" 
d="M209 46q41 0 75 29t35 67v89q-11 -4 -69 -13q-58 -10 -88 -30t-31 -64q0 -78 78 -78zM325 78q-51 -85 -157 -85q-54 0 -88 32q-34 33 -34 83t28 78t66 42q38 12 96 22q60 10 72 14t11 17v44q0 48 -23 69q-24 21 -74 21t-82 -26q27 -14 27 -41q0 -56 -52 -56q-25 0 -39 15
t-14 39q0 48 52 80t125 31q158 0 158 -135v-235q0 -40 30 -40q23 0 40 40l30 -17q-35 -75 -93 -75q-33 1 -54 21t-22 62h-3z" />
    <glyph glyph-name="b" unicode="b" horiz-adv-x="526" 
d="M311 458q67 0 110 -43q63 -62 63 -185t-67 -190q-49 -48 -107 -48q-112 0 -159 102l-29 -99h-41v638h-75v54h152v-334q55 105 153 105zM284 44q52 0 84 48q31 48 31 134t-30 133q-29 47 -83 47t-92 -54t-38 -136q0 -80 38 -126t90 -46z" />
    <glyph glyph-name="c" unicode="c" horiz-adv-x="472" 
d="M442 146q-39 -155 -204 -155q-83 -1 -141 63t-58 166t63 170q62 68 148 68t136 -40t50 -79q0 -37 -16 -57t-42 -20q-54 0 -54 63q0 32 38 45q-31 46 -96 46t-104 -52t-39 -138q1 -86 39 -134t105 -49q94 0 132 103h43z" />
    <glyph glyph-name="d" unicode="d" horiz-adv-x="535" 
d="M244 44q52 0 89 52t37 134q0 80 -34 128t-90 48q-55 0 -87 -48t-32 -134q0 -84 33 -132q32 -48 84 -48zM218 -8q-67 0 -111 44q-65 64 -65 184t69 190q48 48 116 48q95 0 140 -87v262h-76v54h153v-635h72v-52h-147v98q-52 -106 -151 -106z" />
    <glyph glyph-name="e" unicode="e" horiz-adv-x="476" 
d="M248 415q-51 0 -84 -39t-40 -112h235q-11 151 -111 151zM39 220q-1 102 61 170t154 68t139 -70q48 -70 46 -167h-316q1 -85 40 -131t104 -46q93 0 128 88h42q-41 -141 -187 -141q-97 -1 -154 63t-57 166z" />
    <glyph glyph-name="f" unicode="f" horiz-adv-x="334" 
d="M369 549q-53 0 -53 52q0 21 17 38q-16 13 -57 13q-89 0 -89 -172v-33h133v-49h-133v-346h105v-52h-257v52h74v346h-91v49h91v29q0 111 53 164q54 53 120 53t102 -24q36 -23 35 -55t-15 -48t-35 -17z" />
    <glyph glyph-name="g" unicode="g" horiz-adv-x="469" 
d="M222 -119q69 -1 111 23t42 62q0 56 -71 56h-112q-94 0 -94 -70t124 -71zM230 203q92 0 92 108q0 47 -26 77t-71 31q-92 0 -92 -109q1 -53 27 -80t70 -27zM437 434q-40 0 -40 40q0 6 1 10q-14 1 -32 -15t-32 -41q70 -43 70 -114t-48 -110t-128 -39l-61 3q-23 0 -38 -12
t-15 -29q0 -40 79 -40h119q132 0 132 -101q0 -63 -61 -105t-157 -42t-150 29q-52 29 -52 68q0 38 26 64t70 33v3q-74 22 -74 73q0 25 24 47t61 30q-79 40 -79 116t50 115q50 40 107 40t93 -14q52 89 121 89q26 0 42 -14t16 -36q-1 -20 -13 -34t-31 -14z" />
    <glyph glyph-name="h" unicode="h" horiz-adv-x="556" 
d="M388 280q0 114 -83 114q-49 0 -89 -46t-41 -100v-196h68v-52h-221v52h75v581h-75v54h153v-351q69 121 168 121q58 0 90 -37t32 -105v-263h75v-52h-221v52h69v228z" />
    <glyph glyph-name="i" unicode="i" horiz-adv-x="300" 
d="M36 0v52h85v346h-85v52h162v-398h85v-52h-247zM154 552q-24 0 -41 15q-16 15 -16 41t16 42q17 16 41 16t40 -16t15 -41q1 -25 -15 -41t-40 -16z" />
    <glyph glyph-name="j" unicode="j" horiz-adv-x="281" 
d="M68 -163q-58 1 -88 23t-31 50t15 46q16 17 39 17t37 -14q14 -13 14 -35t-17 -39q10 -7 26 -7q60 0 60 100v420h-84v52h162v-432q0 -88 -38 -134q-37 -46 -95 -47zM156 552q-24 0 -40 15t-16 41t16 42t40 16t40 -16t15 -41q1 -25 -15 -41t-40 -16z" />
    <glyph glyph-name="k" unicode="k" horiz-adv-x="522" 
d="M512 52v-52h-205v51h60l-119 173l-73 -74v-98h62v-52h-215v52h75v581h-75v54h153v-481l182 193h-75v51h208v-52h-68l-123 -125l156 -221h57z" />
    <glyph glyph-name="l" unicode="l" horiz-adv-x="284" 
d="M18 0v52h85v581h-85v54h163v-635h84v-52h-247z" />
    <glyph glyph-name="m" unicode="m" horiz-adv-x="839" 
d="M632 457q56 -1 86 -37t31 -106v-262h75v-52h-216v52h64v228q0 69 -22 91t-62 22q-42 1 -81 -45t-39 -100v-196h64v-52h-205v52h63v228q0 70 -22 92t-62 21q-42 1 -80 -45t-39 -100v-196h63v-52h-216v52h75v346h-75v52h151v-116q71 123 165 123q107 0 116 -119
q72 119 166 119z" />
    <glyph glyph-name="n" unicode="n" horiz-adv-x="568" 
d="M400 280q0 114 -83 114q-49 0 -89 -46t-41 -100v-196h68v-52h-221v52h75v346h-75v52h151v-116q71 123 170 123q58 0 90 -37t32 -105v-263h75v-52h-221v52h69v228z" />
    <glyph glyph-name="o" unicode="o" horiz-adv-x="512" 
d="M259 35q59 0 94 48t35 142q0 93 -38 141t-97 48t-95 -48t-35 -142t39 -141q38 -48 97 -48zM254 -9q-94 -1 -154 63t-61 168q0 104 62 170q63 66 157 66t154 -64t61 -166q0 -104 -62 -170q-63 -66 -157 -67z" />
    <glyph glyph-name="p" unicode="p" horiz-adv-x="539" 
d="M22 -150v52h75v496h-75v52h150v-105q50 113 154 113q65 0 118 -53t53 -171t-67 -186q-48 -48 -114 -48q-95 0 -142 92v-190h98v-52h-250zM294 53q54 0 86 47q32 46 32 134t-32 130t-81 42q-51 0 -89 -54t-38 -129q0 -76 34 -123t88 -47z" />
    <glyph glyph-name="q" unicode="q" horiz-adv-x="522" 
d="M226 458q100 0 148 -102l29 98h41v-552h75v-52h-249v52h97v204q-49 -106 -150 -106q-67 0 -121 54t-54 170t58 176q58 58 126 58zM244 406q-54 0 -85 -47q-32 -47 -32 -135t32 -129q31 -42 83 -42t89 51t37 128q0 78 -35 126t-89 48z" />
    <glyph glyph-name="r" unicode="r" horiz-adv-x="405" 
d="M34 0v52h75v346h-75v52h151v-106q21 56 58 84t74 28t57 -20t20 -46t-16 -44q-16 -17 -38 -17q-22 1 -38 15t-16 31t4 25q-34 4 -63 -30t-40 -75v-243h88v-52h-241z" />
    <glyph glyph-name="s" unicode="s" horiz-adv-x="433" 
d="M45 -9v170h46q18 -61 57 -95t86 -34q94 0 94 70q0 33 -26 52t-103 40q-76 21 -111 52t-35 83q1 53 43 91t116 38t109 -54l11 54h44v-154h-44q-25 59 -53 86q-29 27 -69 27q-40 1 -64 -17t-23 -48q-1 -30 27 -50t102 -40t109 -50t35 -84t-44 -96t-122 -41q-80 0 -130 63
l-11 -63h-44z" />
    <glyph glyph-name="t" unicode="t" horiz-adv-x="350" 
d="M212 -9q-114 0 -114 122v285h-91v49h91v120l78 10v-130h147v-49h-147v-283q0 -70 56 -70q47 0 75 80l36 -14q-34 -120 -131 -120z" />
    <glyph glyph-name="u" unicode="u" horiz-adv-x="551" 
d="M212 -8q-56 0 -88 37t-32 106v263h-74v52h151v-280q0 -69 26 -94q17 -20 61 -20t83 46q40 46 40 99v197h-77v52h155v-398h74v-52h-150v115q-72 -123 -169 -123z" />
    <glyph glyph-name="v" unicode="v" horiz-adv-x="494" 
d="M0 398v52h225v-52h-78l113 -318h3l121 318h-70v52h180v-52h-54l-162 -404h-62l-154 404h-62z" />
    <glyph glyph-name="w" unicode="w" horiz-adv-x="752" 
d="M503 398h-81l108 -318h3l109 318h-70v52h178v-52h-54l-146 -404h-64l-102 290l-118 -290h-63l-139 404h-62v52h219v-52h-76l103 -318h2l110 274l-15 44h-62v52h220v-52z" />
    <glyph glyph-name="x" unicode="x" horiz-adv-x="487" 
d="M224 400h-69l100 -137l110 137h-64v50h175v-52h-51l-140 -166l137 -180h54v-52h-208v50h68l-101 137l-112 -137h62v-50h-173v52h53l140 165l-139 181h-54v52h212v-50z" />
    <glyph glyph-name="y" unicode="y" horiz-adv-x="489" 
d="M70 -33q24 -1 37 -15q14 -14 14 -35t-9 -35q30 2 56 27t53 92l-159 397h-62v52h224v-52h-78l116 -309l120 309h-69v52h180v-52h-55l-155 -380q-73 -181 -175 -181q-46 -1 -70 19t-24 48t16 46t40 17z" />
    <glyph glyph-name="z" unicode="z" horiz-adv-x="457" 
d="M35 0v43l293 363h-159q-37 0 -51 -20t-31 -93h-37v157h374v-43l-295 -363h183q38 0 50 22t26 102h38v-168h-391z" />
    <glyph glyph-name="braceleft" unicode="{" horiz-adv-x="388" 
d="M46 260h-30v48h30q69 0 103 25t34 67l-15 144q0 81 52 127t158 50v-46q-74 -6 -102 -36t-29 -87l8 -127q0 -121 -136 -139v-3q136 -18 136 -140l-8 -127q1 -57 29 -87t102 -36v-46q-106 4 -158 50t-52 127l15 145q0 43 -34 67t-103 24z" />
    <glyph glyph-name="bar" unicode="|" horiz-adv-x="279" 
d="M112 -203v901h55v-901h-55z" />
    <glyph glyph-name="braceright" unicode="}" horiz-adv-x="388" 
d="M342 308h30v-48h-30q-69 0 -103 -25t-34 -67l15 -144q0 -81 -52 -127t-158 -50v46q74 6 102 36t29 87l-8 127q0 121 136 139v3q-136 18 -136 140l8 127q-1 57 -29 87t-102 36v46q106 -4 158 -50t52 -127l-15 -145q0 -43 34 -67t103 -24z" />
    <glyph glyph-name="asciitilde" unicode="~" horiz-adv-x="371" 
d="M334 380q-16 -122 -84 -122q-34 0 -75 28q-42 28 -56 29q-31 0 -42 -64h-36q15 122 83 122q34 -1 76 -29t56 -28q31 0 42 64h36z" />
    <glyph glyph-name="uni00A0" unicode="&#xa0;" horiz-adv-x="178" 
 />
    <glyph glyph-name="exclamdown" unicode="&#xa1;" horiz-adv-x="266" 
d="M146 678q24 0 40 -16t17 -40q-1 -24 -17 -40t-40 -17q-24 1 -40 17t-17 40q1 24 17 40t40 16zM146 -15q-51 0 -51 61l34 431h33l35 -431q0 -61 -51 -61z" />
    <glyph glyph-name="cent" unicode="&#xa2;" horiz-adv-x="514" 
d="M143 232q0 -147 99 -181l33 364q-60 -9 -96 -59t-36 -124zM481 337q-1 -71 -57 -71t-56 63q0 32 38 45q-23 34 -86 41l-34 -372h9q102 0 141 103h42q-18 -73 -70 -113t-125 -42l-8 -93l-46 3l7 94q-80 13 -128 73t-49 156q0 94 60 160t159 73l8 89l46 -3l-8 -87
q67 -7 112 -45t45 -74z" />
    <glyph glyph-name="sterling" unicode="&#xa3;" horiz-adv-x="587" 
d="M117 29q42 0 70 73q-21 7 -45 7q-24 -1 -40 -15t-17 -31q0 -34 32 -34zM468 442q-60 0 -60 66q0 34 37 47q-24 40 -83 40q-58 -1 -94 -33t-36 -80t18 -94t21 -52h188v-51h-174q3 -30 3 -31q0 -54 -30 -111q38 -12 96 -45t87 -33q56 0 74 112l40 -3q-6 -100 -36 -144
t-87 -45q-57 1 -118 45t-83 55q-42 -101 -121 -101q-33 0 -55 20t-22 56q-1 36 37 66t109 31q19 0 35 -3q9 28 9 58t-20 73h-146v51h119q-23 48 -23 96q0 96 60 154q61 58 143 57t128 -39t46 -80t-18 -62t-44 -20z" />
    <glyph glyph-name="yen" unicode="&#xa5;" horiz-adv-x="654" 
d="M99 309h161l-153 269h-78v50h261v-50h-89l140 -259l150 259h-82v50h217v-50h-73l-163 -269h160v-47h-185v-72h185v-47h-185v-91h118v-52h-316v52h119v91h-187v47h187v72h-187v47z" />
    <glyph glyph-name="section" unicode="&#xa7;" horiz-adv-x="516" 
d="M381 258q0 32 -24 54t-87 44l-29 10q-90 -28 -90 -94q-1 -32 25 -54t92 -43l26 -9q87 26 87 92zM435 543q0 -67 -51 -67q-24 0 -38 14t-14 40q0 24 26 39q-34 30 -86 30q-52 -1 -80 -23t-29 -52q0 -30 27 -53q26 -22 110 -51q84 -28 118 -60t35 -78q0 -93 -105 -134v-5
q91 -40 91 -107q-1 -66 -47 -110t-130 -44t-138 34q-55 34 -55 83q-1 27 15 45t40 18t40 -16q15 -16 15 -42t-30 -43q37 -34 101 -34q64 1 92 23q27 22 27 54t-26 56q-27 24 -111 52t-120 60t-35 78q0 90 112 132v5q-96 44 -96 109q0 64 51 106t124 42t120 -33t47 -68z" />
    <glyph glyph-name="dieresis" unicode="&#xa8;" horiz-adv-x="322" 
d="M74 550q-22 0 -36 16t-15 38q1 23 15 39t36 16t37 -16t15 -39q0 -22 -15 -38t-37 -16zM248 550q-22 0 -37 16t-15 38q0 23 15 39t37 16t36 -16t15 -39q-1 -22 -15 -38t-36 -16z" />
    <glyph glyph-name="copyright" unicode="&#xa9;" horiz-adv-x="787" 
d="M404 180q96 0 111 114h36q-7 -72 -49 -112t-112 -39q-70 -1 -118 53t-48 136t50 136t120 54q68 0 105 -44l11 43h35v-136h-31q-36 102 -114 102q-54 0 -84 -39t-30 -113q0 -75 31 -115t87 -40zM394 2q136 0 228 95t92 233t-93 232t-227 94t-228 -94q-93 -94 -93 -232
t93 -233t228 -95zM394 -32q-152 0 -256 104t-104 258q0 152 104 256t256 104t255 -104q104 -104 104 -256t-104 -258q-103 -104 -255 -104z" />
    <glyph glyph-name="ordfeminine" unicode="&#xaa;" horiz-adv-x="403" 
d="M175 352q29 0 53 21t25 48v59q-9 -4 -49 -10t-62 -20t-22 -44q0 -54 55 -54zM145 566q1 -42 -39 -42t-40 48q0 26 40 50t92 24q116 0 116 -99v-167q0 -29 22 -29q16 0 29 30l25 -13q-26 -56 -72 -56q-52 0 -58 56h-3q-39 -58 -95 -58q-108 0 -108 86q0 79 122 99
q62 9 70 13t7 13v29q0 34 -16 48q-15 14 -51 14t-60 -16q19 -10 19 -30z" />
    <glyph glyph-name="guillemotleft" unicode="&#xab;" horiz-adv-x="492" 
d="M237 224q0 13 27 40l149 152l30 -20l-125 -171l125 -173l-30 -20l-149 152q-27 27 -27 40zM43 224q0 13 27 40l150 152l29 -20l-125 -171l125 -173l-29 -20l-150 152q-27 27 -27 40z" />
    <glyph glyph-name="registered" unicode="&#xae;" horiz-adv-x="517" 
d="M228 481h36q48 0 48 41t-45 41h-39v-82zM228 459v-77h36v-23h-112v23h36v181h-36v24h116q47 1 68 -17t21 -40q0 -50 -65 -58v-3q49 -8 54 -49l2 -23q0 -17 10 -17t16 18l16 -6q-12 -38 -42 -38q-39 0 -42 47l-1 22q-1 36 -40 36h-37zM259 276q85 0 137 54t51 140
q1 86 -51 139t-138 53t-136 -53q-52 -53 -52 -139t52 -140t137 -54zM258 248q-94 0 -158 64t-63 158q-1 96 63 158t158 62t158 -62t64 -158q0 -94 -64 -158t-158 -64z" />
    <glyph glyph-name="macron" unicode="&#xaf;" horiz-adv-x="321" 
d="M35 546v62h251v-62h-251z" />
    <glyph glyph-name="degree" unicode="&#xb0;" horiz-adv-x="391" 
d="M198 395q42 0 68 29t25 83q1 54 -27 84t-70 30t-67 -30q-26 -30 -26 -83t27 -83q28 -30 70 -30zM194 349q-72 0 -114 45t-42 112t44 114t116 47q70 0 112 -45q42 -44 43 -112q0 -68 -44 -114t-115 -47z" />
    <glyph glyph-name="plusminus" unicode="&#xb1;" horiz-adv-x="539" 
d="M455 29h-371v46h371v-46zM246 159v165h-160v44h160v163h49v-163h159v-44h-159v-165h-49z" />
    <glyph glyph-name="acute" unicode="&#xb4;" horiz-adv-x="237" 
d="M163 723q38 1 38 -39q0 -18 -43 -74l-65 -83h-38l50 126q26 70 58 70z" />
    <glyph glyph-name="paragraph" unicode="&#xb6;" horiz-adv-x="641" 
d="M324 -104v274q-122 1 -194 61t-71 158q-1 97 67 157t208 60h271v-51h-92v-659h-56v659h-78v-659h-55z" />
    <glyph glyph-name="periodcentered" unicode="&#xb7;" horiz-adv-x="214" 
d="M107 264q-25 0 -41 16t-16 40t16 40t41 17q25 -1 41 -17t16 -40t-16 -40t-41 -16z" />
    <glyph glyph-name="cedilla" unicode="&#xb8;" horiz-adv-x="282" 
d="M105 -198q57 0 57 43q0 22 -20 34t-45 12t-43 -5l-14 19l96 100h49l-72 -72l1 -3q48 -1 76 -23t29 -59t-29 -61t-82 -24t-96 30l19 32q38 -23 74 -23z" />
    <glyph glyph-name="ordmasculine" unicode="&#xba;" horiz-adv-x="416" 
d="M210 345q42 1 69 35q26 34 26 98q-1 64 -29 98t-70 34t-69 -34q-26 -34 -26 -99q1 -65 29 -99t70 -33zM207 309q-69 -1 -115 45t-46 121t47 123t117 48t114 -46q46 -46 46 -120t-46 -123q-46 -48 -117 -48z" />
    <glyph glyph-name="guillemotright" unicode="&#xbb;" horiz-adv-x="492" 
d="M255 224q0 -13 -27 -40l-149 -152l-30 20l125 171l-125 173l30 20l149 -152q27 -27 27 -40zM449 224q0 -13 -27 -40l-150 -152l-29 20l125 171l-125 173l29 20l150 -152q27 -27 27 -40z" />
    <glyph glyph-name="questiondown" unicode="&#xbf;" horiz-adv-x="422" 
d="M224 678q24 0 40 -16t17 -40q-1 -24 -17 -40t-40 -17q-24 1 -40 17t-17 40q1 24 17 40t40 16zM279 147q0 25 16 43q17 18 43 17q26 1 44 -19t18 -49q0 -61 -54 -107t-140 -47q-84 1 -136 47t-52 104t25 98t89 94t73 143h44q-1 -101 -63 -177q-33 -39 -37 -46
q-5 -6 -15 -20q-30 -41 -30 -88q0 -48 30 -80t75 -31q87 0 115 60q-45 11 -45 58z" />
    <glyph glyph-name="Agrave" unicode="&#xc0;" horiz-adv-x="672" 
d="M227 894q-1 40 37 39q31 0 59 -70l50 -126h-38l-65 83q-43 56 -43 74zM320 559l-106 -277h207l-98 277h-3zM215 52v-52h-219v52h70l238 605h70l222 -605h84v-52h-280v52h103l-65 183h-242l-69 -183h88z" />
    <glyph glyph-name="Aacute" unicode="&#xc1;" horiz-adv-x="672" 
d="M423 933q38 1 38 -39q0 -18 -43 -74l-65 -83h-38l50 126q26 70 58 70zM320 559l-106 -277h207l-98 277h-3zM215 52v-52h-219v52h70l238 605h70l222 -605h84v-52h-280v52h103l-65 183h-242l-69 -183h88z" />
    <glyph glyph-name="Acircumflex" unicode="&#xc2;" horiz-adv-x="672" 
d="M213 738l108 181h37l109 -181h-39l-88 102l-88 -102h-39zM320 559l-106 -277h207l-98 277h-3zM215 52v-52h-219v52h70l238 605h70l222 -605h84v-52h-280v52h103l-65 183h-242l-69 -183h88z" />
    <glyph glyph-name="Atilde" unicode="&#xc3;" horiz-adv-x="672" 
d="M487 871q-17 -123 -83 -123q-34 0 -76 29t-56 29q-30 0 -41 -63h-37q16 122 84 122q34 -1 75 -29q42 -28 56 -28q30 0 41 63h37zM320 559l-106 -277h207l-98 277h-3zM215 52v-52h-219v52h70l238 605h70l222 -605h84v-52h-280v52h103l-65 183h-242l-69 -183h88z" />
    <glyph glyph-name="Adieresis" unicode="&#xc4;" horiz-adv-x="672" 
d="M427 760q-22 0 -37 16t-15 38q0 23 15 39t37 16q23 0 37 -16t14 -39q0 -22 -14 -38t-37 -16zM253 760q-23 0 -37 16t-14 38q0 23 14 39t37 16q22 0 37 -16t15 -39q0 -22 -15 -38t-37 -16zM320 559l-106 -277h207l-98 277h-3zM215 52v-52h-219v52h70l238 605h70l222 -605
h84v-52h-280v52h103l-65 183h-242l-69 -183h88z" />
    <glyph glyph-name="Aring" unicode="&#xc5;" horiz-adv-x="672" 
d="M301 652q-68 20 -68 100q-1 38 27 66q28 30 77 30t77 -30t27 -71q0 -75 -66 -94l221 -601h84v-52h-280v52h103l-65 183h-241l-70 -183h88v-52h-219v52h70zM421 282l-98 277h-3l-106 -277h207zM337 679q27 -1 43 19t16 50t-16 49t-43 19t-43 -19t-16 -49t16 -50t43 -19z
" />
    <glyph glyph-name="AE" unicode="&#xc6;" horiz-adv-x="958" 
d="M212 52v-52h-236v52h80l318 549h-103v51h620v-204h-40q-21 100 -37 126t-61 27h-225v-243h99q44 0 57 16t24 84h41v-249h-41q-10 70 -23 87t-58 17h-99v-261h223q53 0 70 29t39 143h40v-224h-567v52h110v193h-213l-110 -193h92zM443 292v309h-7l-178 -309h185z" />
    <glyph glyph-name="Ccedilla" unicode="&#xc7;" horiz-adv-x="675" 
d="M333 -198q57 0 57 43q0 22 -20 34t-45 12t-43 -5l-14 19l76 79q-133 2 -215 98t-82 242q1 146 89 246q88 98 210 98t192 -79l19 76h52v-247h-46q-66 195 -211 195q-94 1 -152 -73t-57 -210q-1 -136 59 -212t153 -77q93 1 148 59t69 155h56q-13 -115 -74 -185t-159 -83
l-54 -54l1 -3q48 -1 76 -23t29 -59t-29 -61t-82 -24t-96 30l19 32q38 -23 74 -23z" />
    <glyph glyph-name="Egrave" unicode="&#xc8;" horiz-adv-x="657" 
d="M244 894q0 40 38 39q31 0 58 -70l50 -126h-38l-65 83q-43 56 -43 74zM32 0v52h111v549h-111v51h558v-204h-39q-21 100 -37 126t-62 27h-225v-243h99q45 0 58 16t24 84h41v-249h-41q-10 70 -24 87t-58 17h-99v-261h223q52 0 70 29t40 143h39v-224h-567z" />
    <glyph glyph-name="Eacute" unicode="&#xc9;" horiz-adv-x="657" 
d="M32 0v52h111v549h-111v51h558v-204h-39q-21 100 -37 126t-62 27h-225v-243h99q45 0 58 16t24 84h41v-249h-41q-10 70 -24 87t-58 17h-99v-261h223q52 0 70 29t40 143h39v-224h-567zM439 933q38 1 38 -39q0 -18 -43 -74l-65 -83h-38l50 126q26 70 58 70z" />
    <glyph glyph-name="Ecircumflex" unicode="&#xca;" horiz-adv-x="657" 
d="M32 0v52h111v549h-111v51h558v-204h-39q-21 100 -37 126t-62 27h-225v-243h99q45 0 58 16t24 84h41v-249h-41q-10 70 -24 87t-58 17h-99v-261h223q52 0 70 29t40 143h39v-224h-567zM229 738l108 181h37l109 -181h-39l-88 102l-88 -102h-39z" />
    <glyph glyph-name="Edieresis" unicode="&#xcb;" horiz-adv-x="657" 
d="M32 0v52h111v549h-111v51h558v-204h-39q-21 100 -37 126t-62 27h-225v-243h99q45 0 58 16t24 84h41v-249h-41q-10 70 -24 87t-58 17h-99v-261h223q52 0 70 29t40 143h39v-224h-567zM269 760q-23 0 -37 16t-14 38q0 23 14 39t37 16q22 0 37 -16t15 -39q0 -22 -15 -38
t-37 -16zM443 760q-22 0 -37 16t-15 38q0 23 15 39t37 16q23 0 37 -16t14 -39q0 -22 -14 -38t-37 -16z" />
    <glyph glyph-name="Igrave" unicode="&#xcc;" horiz-adv-x="384" 
d="M78 894q0 40 38 39q31 0 58 -70l50 -126h-38l-65 83q-43 56 -43 74zM39 0v52h110v549h-110v51h306v-51h-111v-549h111v-52h-306z" />
    <glyph glyph-name="Iacute" unicode="&#xcd;" horiz-adv-x="384" 
d="M274 933q38 1 38 -39q0 -18 -43 -74l-65 -83h-38l50 126q26 70 58 70zM39 0v52h110v549h-110v51h306v-51h-111v-549h111v-52h-306z" />
    <glyph glyph-name="Icircumflex" unicode="&#xce;" horiz-adv-x="384" 
d="M64 738l108 181h37l109 -181h-39l-88 102l-88 -102h-39zM39 0v52h110v549h-110v51h306v-51h-111v-549h111v-52h-306z" />
    <glyph glyph-name="Idieresis" unicode="&#xcf;" horiz-adv-x="384" 
d="M104 760q-22 0 -36 16t-15 38q1 23 15 39t36 16t37 -16t15 -39q0 -22 -15 -38t-37 -16zM278 760q-22 0 -37 16t-15 38q0 23 15 39t37 16t36 -16t15 -39q-1 -22 -15 -38t-36 -16zM39 0v52h110v549h-110v51h306v-51h-111v-549h111v-52h-306z" />
    <glyph glyph-name="Eth" unicode="&#xd0;" horiz-adv-x="704" 
d="M227 52h83q132 0 192 68t61 208q0 140 -63 206t-197 67h-76v-234h143v-51h-143v-264zM32 0v52h111v264h-111v51h111v234h-111v51h270q175 0 266 -85t91 -233q-1 -148 -89 -240q-88 -94 -262 -94h-276z" />
    <glyph glyph-name="Ntilde" unicode="&#xd1;" horiz-adv-x="767" 
d="M533 871q-17 -123 -83 -123q-34 0 -76 29t-56 29q-30 0 -41 -63h-37q16 122 84 122q34 -1 75 -29q42 -28 56 -28q30 0 41 63h37zM196 546v-494h100v-52h-262v52h104v549h-104v51h196l350 -506h5v455h-101v51h259v-51h-99v-617h-55l-388 562h-5z" />
    <glyph glyph-name="Ograve" unicode="&#xd2;" 
d="M242 894q0 40 38 39q31 0 58 -70l50 -126h-38l-65 83q-43 56 -43 74zM356 37q100 -1 156 77q57 78 57 212t-57 210q-56 78 -156 78t-156 -78t-57 -210q1 -133 57 -211t156 -78zM354 -16q-130 0 -218 96q-89 96 -89 244q1 147 91 245t220 98q130 1 218 -95t88 -244
t-90 -246t-220 -98z" />
    <glyph glyph-name="Oacute" unicode="&#xd3;" 
d="M356 37q100 -1 156 77q57 78 57 212t-57 210q-56 78 -156 78t-156 -78t-57 -210q1 -133 57 -211t156 -78zM354 -16q-130 0 -218 96q-89 96 -89 244q1 147 91 245t220 98q130 1 218 -95t88 -244t-90 -246t-220 -98zM438 933q38 1 38 -39q0 -18 -43 -74l-65 -83h-38l50 126
q26 70 58 70z" />
    <glyph glyph-name="Ocircumflex" unicode="&#xd4;" 
d="M356 37q100 -1 156 77q57 78 57 212t-57 210q-56 78 -156 78t-156 -78t-57 -210q1 -133 57 -211t156 -78zM354 -16q-130 0 -218 96q-89 96 -89 244q1 147 91 245t220 98q130 1 218 -95t88 -244t-90 -246t-220 -98zM228 738l108 181h37l109 -181h-39l-88 102l-88 -102h-39
z" />
    <glyph glyph-name="Otilde" unicode="&#xd5;" 
d="M502 871q-18 -123 -84 -123q-34 0 -75 29q-42 29 -56 29q-30 0 -41 -63h-37q15 122 83 122q34 -1 76 -29t56 -28q30 0 41 63h37zM356 37q100 -1 156 77q57 78 57 212t-57 210q-56 78 -156 78t-156 -78t-57 -210q1 -133 57 -211t156 -78zM354 -16q-130 0 -218 96
q-89 96 -89 244q1 147 91 245t220 98q130 1 218 -95t88 -244t-90 -246t-220 -98z" />
    <glyph glyph-name="Odieresis" unicode="&#xd6;" 
d="M356 37q100 -1 156 77q57 78 57 212t-57 210q-56 78 -156 78t-156 -78t-57 -210q1 -133 57 -211t156 -78zM354 -16q-130 0 -218 96q-89 96 -89 244q1 147 91 245t220 98q130 1 218 -95t88 -244t-90 -246t-220 -98zM268 760q-22 0 -36 16t-15 38q1 23 15 39t36 16t37 -16
t15 -39q0 -22 -15 -38t-37 -16zM442 760q-22 0 -37 16t-15 38q0 23 15 39t37 16t36 -16t15 -39q-1 -22 -15 -38t-36 -16z" />
    <glyph glyph-name="multiply" unicode="&#xd7;" horiz-adv-x="512" 
d="M291 278l144 -148l-36 -36l-143 148l-142 -147l-36 36l143 147l-144 148l36 36l143 -148l142 147l36 -37z" />
    <glyph glyph-name="Oslash" unicode="&#xd8;" 
d="M143 334q0 -126 44 -200l308 422q-55 58 -147 58t-148 -78q-56 -76 -57 -202zM363 37q92 -1 149 77t57 202t-44 200l-309 -421q55 -58 147 -58zM47 322q1 148 91 247q90 98 204 98t195 -61l56 79h64l-84 -111q91 -98 91 -246t-90 -246t-205 -98t-195 61l-56 -79h-63
l84 111q-92 97 -92 245z" />
    <glyph glyph-name="Ugrave" unicode="&#xd9;" horiz-adv-x="734" 
d="M267 894q-1 40 37 39q31 0 59 -70l50 -126h-38l-65 83q-43 56 -43 74zM390 43q173 0 173 200v358h-101v51h251v-51h-92v-395q-1 -98 -67 -160t-188 -62t-185 58t-63 155v404h-96v51h281v-51h-101v-382q0 -92 47 -134t141 -42z" />
    <glyph glyph-name="Uacute" unicode="&#xda;" horiz-adv-x="734" 
d="M390 43q173 0 173 200v358h-101v51h251v-51h-92v-395q-1 -98 -67 -160t-188 -62t-185 58t-63 155v404h-96v51h281v-51h-101v-382q0 -92 47 -134t141 -42zM463 933q38 1 38 -39q0 -18 -43 -74l-65 -83h-38l50 126q26 70 58 70z" />
    <glyph glyph-name="Ucircumflex" unicode="&#xdb;" horiz-adv-x="734" 
d="M390 43q173 0 173 200v358h-101v51h251v-51h-92v-395q-1 -98 -67 -160t-188 -62t-185 58t-63 155v404h-96v51h281v-51h-101v-382q0 -92 47 -134t141 -42zM253 738l108 181h37l109 -181h-39l-88 102l-88 -102h-39z" />
    <glyph glyph-name="Udieresis" unicode="&#xdc;" horiz-adv-x="734" 
d="M390 43q173 0 173 200v358h-101v51h251v-51h-92v-395q-1 -98 -67 -160t-188 -62t-185 58t-63 155v404h-96v51h281v-51h-101v-382q0 -92 47 -134t141 -42zM293 760q-23 0 -37 16t-14 38q0 23 14 39t37 16q22 0 37 -16t15 -39q0 -22 -15 -38t-37 -16zM467 760q-22 0 -37 16
t-15 38q0 23 15 39t37 16q23 0 37 -16t14 -39q0 -22 -14 -38t-37 -16z" />
    <glyph glyph-name="Yacute" unicode="&#xdd;" horiz-adv-x="637" 
d="M419 933q38 1 38 -39q0 -18 -43 -74l-65 -83h-38l50 126q26 70 58 70zM415 601v51h221v-51h-77l-199 -326v-223h101v-52h-286v52h100v222l-187 327h-82v51h272v-51h-90l150 -273l161 273h-84z" />
    <glyph glyph-name="Thorn" unicode="&#xde;" horiz-adv-x="613" 
d="M227 206h91q165 0 165 142q0 128 -164 128h-92v-270zM32 0v52h111v549h-111v51h303v-51h-108v-75h89q139 0 200 -50t61 -131t-64 -135t-193 -54h-93v-104h108v-52h-303z" />
    <glyph glyph-name="germandbls" unicode="&#xdf;" horiz-adv-x="547" 
d="M243 76q0 65 51 65q22 0 35 -14q13 -15 13 -37t-22 -39q22 -18 62 -18q40 1 62 23t22 53q0 51 -76 97t-98 71q-24 26 -24 58t14 53t48 54q34 32 46 56t12 60t-26 64q-26 26 -68 26q-107 0 -107 -153v-495h-152v52h74v346h-91v49h91v25q0 115 54 168t129 53q76 0 124 -41
q48 -42 48 -90t-20 -76t-66 -64q-47 -34 -47 -56q-1 -22 15 -36t73 -49t83 -66t27 -85q0 -54 -41 -96q-40 -43 -102 -43q-62 -1 -102 25t-41 60z" />
    <glyph glyph-name="agrave" unicode="&#xe0;" horiz-adv-x="483" 
d="M131 684q-1 40 37 39q31 0 59 -70l50 -126h-38l-65 83q-43 56 -43 74zM209 46q41 0 75 29t35 67v89q-11 -4 -69 -13q-58 -10 -88 -30t-31 -64q0 -78 78 -78zM325 78q-51 -85 -157 -85q-54 0 -88 32q-34 33 -34 83t28 78t66 42q38 12 96 22q60 10 72 14t11 17v44
q0 48 -23 69q-24 21 -74 21t-82 -26q27 -14 27 -41q0 -56 -52 -56q-25 0 -39 15t-14 39q0 48 52 80t125 31q158 0 158 -135v-235q0 -40 30 -40q23 0 40 40l30 -17q-35 -75 -93 -75q-33 1 -54 21t-22 62h-3z" />
    <glyph glyph-name="aacute" unicode="&#xe1;" horiz-adv-x="483" 
d="M327 723q38 1 38 -39q0 -18 -43 -74l-65 -83h-38l50 126q26 70 58 70zM209 46q41 0 75 29t35 67v89q-11 -4 -69 -13q-58 -10 -88 -30t-31 -64q0 -78 78 -78zM325 78q-51 -85 -157 -85q-54 0 -88 32q-34 33 -34 83t28 78t66 42q38 12 96 22q60 10 72 14t11 17v44
q0 48 -23 69q-24 21 -74 21t-82 -26q27 -14 27 -41q0 -56 -52 -56q-25 0 -39 15t-14 39q0 48 52 80t125 31q158 0 158 -135v-235q0 -40 30 -40q23 0 40 40l30 -17q-35 -75 -93 -75q-33 1 -54 21t-22 62h-3z" />
    <glyph glyph-name="acircumflex" unicode="&#xe2;" horiz-adv-x="483" 
d="M117 528l108 181h37l109 -181h-39l-88 102l-88 -102h-39zM209 46q41 0 75 29t35 67v89q-11 -4 -69 -13q-58 -10 -88 -30t-31 -64q0 -78 78 -78zM325 78q-51 -85 -157 -85q-54 0 -88 32q-34 33 -34 83t28 78t66 42q38 12 96 22q60 10 72 14t11 17v44q0 48 -23 69
q-24 21 -74 21t-82 -26q27 -14 27 -41q0 -56 -52 -56q-25 0 -39 15t-14 39q0 48 52 80t125 31q158 0 158 -135v-235q0 -40 30 -40q23 0 40 40l30 -17q-35 -75 -93 -75q-33 1 -54 21t-22 62h-3z" />
    <glyph glyph-name="atilde" unicode="&#xe3;" horiz-adv-x="483" 
d="M391 661q-17 -123 -83 -123q-34 0 -76 29t-56 29q-30 0 -41 -63h-37q16 122 84 122q34 -1 75 -29q42 -28 56 -28q30 0 41 63h37zM209 46q41 0 75 29t35 67v89q-11 -4 -69 -13q-58 -10 -88 -30t-31 -64q0 -78 78 -78zM325 78q-51 -85 -157 -85q-54 0 -88 32q-34 33 -34 83
t28 78t66 42q38 12 96 22q60 10 72 14t11 17v44q0 48 -23 69q-24 21 -74 21t-82 -26q27 -14 27 -41q0 -56 -52 -56q-25 0 -39 15t-14 39q0 48 52 80t125 31q158 0 158 -135v-235q0 -40 30 -40q23 0 40 40l30 -17q-35 -75 -93 -75q-33 1 -54 21t-22 62h-3z" />
    <glyph glyph-name="adieresis" unicode="&#xe4;" horiz-adv-x="483" 
d="M157 550q-23 0 -37 16t-14 38q0 23 14 39t37 16q22 0 37 -16t15 -39q0 -22 -15 -38t-37 -16zM331 550q-22 0 -37 16t-15 38q0 23 15 39t37 16q23 0 37 -16t14 -39q0 -22 -14 -38t-37 -16zM209 46q41 0 75 29t35 67v89q-11 -4 -69 -13q-58 -10 -88 -30t-31 -64
q0 -78 78 -78zM325 78q-51 -85 -157 -85q-54 0 -88 32q-34 33 -34 83t28 78t66 42q38 12 96 22q60 10 72 14t11 17v44q0 48 -23 69q-24 21 -74 21t-82 -26q27 -14 27 -41q0 -56 -52 -56q-25 0 -39 15t-14 39q0 48 52 80t125 31q158 0 158 -135v-235q0 -40 30 -40q23 0 40 40
l30 -17q-35 -75 -93 -75q-33 1 -54 21t-22 62h-3z" />
    <glyph glyph-name="aring" unicode="&#xe5;" horiz-adv-x="483" 
d="M244 554q26 0 42 19t16 49t-16 50t-42 19q-26 1 -42 -19t-16 -50t16 -49t42 -19zM244 521q-49 -1 -77 29t-28 72t28 72t77 29q49 1 77 -29t28 -72t-28 -72t-77 -29zM209 46q41 0 75 29t35 67v89q-11 -4 -69 -13q-58 -10 -88 -30t-31 -64q0 -78 78 -78zM325 78
q-51 -85 -157 -85q-54 0 -88 32q-34 33 -34 83t28 78t66 42q38 12 96 22q60 10 72 14t11 17v44q0 48 -23 69q-24 21 -74 21t-82 -26q27 -14 27 -41q0 -56 -52 -56q-25 0 -39 15t-14 39q0 48 52 80t125 31q158 0 158 -135v-235q0 -40 30 -40q23 0 40 40l30 -17
q-35 -75 -93 -75q-33 1 -54 21t-22 62h-3z" />
    <glyph glyph-name="ae" unicode="&#xe6;" horiz-adv-x="744" 
d="M209 46q41 0 75 29t35 67v89q-11 -4 -69 -13q-58 -10 -88 -30t-31 -64q0 -78 78 -78zM518 415q-50 -1 -82 -39t-38 -112h229q-11 151 -109 151zM167 348q0 -56 -52 -56q-25 0 -39 15t-14 39q0 48 52 80t125 31q107 0 138 -66q57 67 147 67t138 -70t46 -167h-311
q1 -85 38 -131t101 -46q92 0 127 88h42q-41 -141 -186 -141q-124 0 -175 106q-58 -104 -176 -104q-54 0 -88 32q-34 33 -34 83t28 78t66 42q38 12 96 22q60 10 72 14t11 17v44q0 48 -23 69q-24 21 -74 21t-82 -26q27 -14 27 -41z" />
    <glyph glyph-name="ccedilla" unicode="&#xe7;" horiz-adv-x="472" 
d="M378 262q-54 0 -54 63q0 32 38 45q-31 46 -96 46t-104 -52t-39 -138q1 -86 39 -134t105 -49q94 0 132 103h43q-32 -124 -141 -149l-64 -64l1 -3q48 -1 76 -23t29 -59t-29 -61t-82 -24t-96 30l19 32q38 -23 74 -23q57 0 57 43q0 22 -20 34t-45 12t-43 -5l-14 19l82 86
q-92 1 -150 64t-57 165q0 102 63 170q62 68 148 68t136 -40t50 -79q0 -37 -16 -57t-42 -20z" />
    <glyph glyph-name="egrave" unicode="&#xe8;" horiz-adv-x="476" 
d="M139 684q-1 40 37 39q31 0 59 -70l50 -126h-38l-65 83q-43 56 -43 74zM248 415q-51 0 -84 -39t-40 -112h235q-11 151 -111 151zM39 220q-1 102 61 170t154 68t139 -70q48 -70 46 -167h-316q1 -85 40 -131t104 -46q93 0 128 88h42q-41 -141 -187 -141q-97 -1 -154 63
t-57 166z" />
    <glyph glyph-name="eacute" unicode="&#xe9;" horiz-adv-x="476" 
d="M335 723q38 1 38 -39q0 -18 -43 -74l-65 -83h-38l50 126q26 70 58 70zM248 415q-51 0 -84 -39t-40 -112h235q-11 151 -111 151zM39 220q-1 102 61 170t154 68t139 -70q48 -70 46 -167h-316q1 -85 40 -131t104 -46q93 0 128 88h42q-41 -141 -187 -141q-97 -1 -154 63
t-57 166z" />
    <glyph glyph-name="ecircumflex" unicode="&#xea;" horiz-adv-x="476" 
d="M125 528l108 181h37l109 -181h-39l-88 102l-88 -102h-39zM248 415q-51 0 -84 -39t-40 -112h235q-11 151 -111 151zM39 220q-1 102 61 170t154 68t139 -70q48 -70 46 -167h-316q1 -85 40 -131t104 -46q93 0 128 88h42q-41 -141 -187 -141q-97 -1 -154 63t-57 166z" />
    <glyph glyph-name="edieresis" unicode="&#xeb;" horiz-adv-x="476" 
d="M339 550q-22 0 -37 16t-15 38q0 23 15 39t37 16q23 0 37 -16t14 -39q0 -22 -14 -38t-37 -16zM165 550q-23 0 -37 16t-14 38q0 23 14 39t37 16q22 0 37 -16t15 -39q0 -22 -15 -38t-37 -16zM248 415q-51 0 -84 -39t-40 -112h235q-11 151 -111 151zM39 220q-1 102 61 170
t154 68t139 -70q48 -70 46 -167h-316q1 -85 40 -131t104 -46q93 0 128 88h42q-41 -141 -187 -141q-97 -1 -154 63t-57 166z" />
    <glyph glyph-name="igrave" unicode="&#xec;" horiz-adv-x="300" 
d="M34 684q0 40 38 39q31 0 58 -70l50 -126h-38l-65 83q-43 56 -43 74zM36 0v52h85v346h-85v52h162v-398h85v-52h-247z" />
    <glyph glyph-name="iacute" unicode="&#xed;" horiz-adv-x="300" 
d="M36 0v52h85v346h-85v52h162v-398h85v-52h-247zM229 723q38 1 38 -39q0 -18 -43 -74l-65 -83h-38l50 126q26 70 58 70z" />
    <glyph glyph-name="icircumflex" unicode="&#xee;" horiz-adv-x="300" 
d="M36 0v52h85v346h-85v52h162v-398h85v-52h-247zM20 528l108 181h37l109 -181h-39l-88 102l-88 -102h-39z" />
    <glyph glyph-name="idieresis" unicode="&#xef;" horiz-adv-x="300" 
d="M36 0v52h85v346h-85v52h162v-398h85v-52h-247zM60 550q-22 0 -36 16t-15 38q1 23 15 39t36 16t37 -16t15 -39q0 -22 -15 -38t-37 -16zM234 550q-22 0 -37 16t-15 38q0 23 15 39t37 16t36 -16t15 -39q-1 -22 -15 -38t-36 -16z" />
    <glyph glyph-name="eth" unicode="&#xf0;" horiz-adv-x="518" 
d="M258 35q58 0 94 49t36 142q0 92 -38 140t-97 48t-95 -48t-35 -142q0 -94 38 -141q39 -48 97 -48zM473 294q0 -144 -61 -224q-60 -80 -158 -79q-98 0 -156 63q-58 62 -59 164q0 102 60 171q61 69 151 69t132 -77q-14 79 -86 175l-111 -49l-18 40l101 44q-29 35 -69 76
l65 9q30 -28 60 -60l105 46l17 -40l-92 -41q119 -143 119 -287z" />
    <glyph glyph-name="ntilde" unicode="&#xf1;" horiz-adv-x="568" 
d="M442 661q-18 -123 -84 -123q-34 0 -75 29q-42 29 -56 29q-30 0 -41 -63h-37q15 122 83 122q34 -1 76 -29t56 -28q30 0 41 63h37zM400 280q0 114 -83 114q-49 0 -89 -46t-41 -100v-196h68v-52h-221v52h75v346h-75v52h151v-116q71 123 170 123q58 0 90 -37t32 -105v-263h75
v-52h-221v52h69v228z" />
    <glyph glyph-name="ograve" unicode="&#xf2;" horiz-adv-x="512" 
d="M143 684q-1 40 37 39q31 0 59 -70l50 -126h-38l-65 83q-43 56 -43 74zM259 35q59 0 94 48t35 142q0 93 -38 141t-97 48t-95 -48t-35 -142t39 -141q38 -48 97 -48zM254 -9q-94 -1 -154 63t-61 168q0 104 62 170q63 66 157 66t154 -64t61 -166q0 -104 -62 -170
q-63 -66 -157 -67z" />
    <glyph glyph-name="oacute" unicode="&#xf3;" horiz-adv-x="512" 
d="M259 35q59 0 94 48t35 142q0 93 -38 141t-97 48t-95 -48t-35 -142t39 -141q38 -48 97 -48zM254 -9q-94 -1 -154 63t-61 168q0 104 62 170q63 66 157 66t154 -64t61 -166q0 -104 -62 -170q-63 -66 -157 -67zM338 723q38 1 38 -39q0 -18 -43 -74l-65 -83h-38l50 126
q26 70 58 70z" />
    <glyph glyph-name="ocircumflex" unicode="&#xf4;" horiz-adv-x="512" 
d="M259 35q59 0 94 48t35 142q0 93 -38 141t-97 48t-95 -48t-35 -142t39 -141q38 -48 97 -48zM254 -9q-94 -1 -154 63t-61 168q0 104 62 170q63 66 157 66t154 -64t61 -166q0 -104 -62 -170q-63 -66 -157 -67zM128 528l108 181h37l109 -181h-39l-88 102l-88 -102h-39z" />
    <glyph glyph-name="otilde" unicode="&#xf5;" horiz-adv-x="512" 
d="M402 661q-18 -123 -84 -123q-34 0 -75 29q-42 29 -56 29q-30 0 -41 -63h-37q15 122 83 122q34 -1 76 -29t56 -28q30 0 41 63h37zM259 35q59 0 94 48t35 142q0 93 -38 141t-97 48t-95 -48t-35 -142t39 -141q38 -48 97 -48zM254 -9q-94 -1 -154 63t-61 168q0 104 62 170
q63 66 157 66t154 -64t61 -166q0 -104 -62 -170q-63 -66 -157 -67z" />
    <glyph glyph-name="odieresis" unicode="&#xf6;" horiz-adv-x="512" 
d="M259 35q59 0 94 48t35 142q0 93 -38 141t-97 48t-95 -48t-35 -142t39 -141q38 -48 97 -48zM254 -9q-94 -1 -154 63t-61 168q0 104 62 170q63 66 157 66t154 -64t61 -166q0 -104 -62 -170q-63 -66 -157 -67zM168 550q-22 0 -36 16t-15 38q1 23 15 39t36 16t37 -16t15 -39
q0 -22 -15 -38t-37 -16zM342 550q-22 0 -37 16t-15 38q0 23 15 39t37 16t36 -16t15 -39q-1 -22 -15 -38t-36 -16z" />
    <glyph glyph-name="divide" unicode="&#xf7;" horiz-adv-x="512" 
d="M256 180q22 0 38 -16t16 -39t-16 -39t-38 -15q-22 -1 -38 15t-16 39t16 39t38 16zM465 253h-417v49h417v-49zM256 484q22 0 38 -16t16 -38t-16 -38t-38 -16t-38 16t-16 38t16 38t38 16z" />
    <glyph glyph-name="oslash" unicode="&#xf8;" horiz-adv-x="512" 
d="M261 35q57 0 92 48q35 49 35 129t-22 126l-198 -263q36 -40 93 -40zM123 238q0 -80 21 -127l200 262q-34 41 -92 41t-94 -48t-35 -128zM39 221q0 105 62 171q63 66 145 66t136 -37l41 55h52l-63 -81q61 -67 61 -169t-62 -168q-63 -66 -145 -67q-82 0 -136 37l-41 -55h-52
l62 81q-60 63 -60 167z" />
    <glyph glyph-name="ugrave" unicode="&#xf9;" horiz-adv-x="551" 
d="M158 684q0 40 38 39q31 0 58 -70l50 -126h-38l-65 83q-43 56 -43 74zM212 -8q-56 0 -88 37t-32 106v263h-74v52h151v-280q0 -69 26 -94q17 -20 61 -20t83 46q40 46 40 99v197h-77v52h155v-398h74v-52h-150v115q-72 -123 -169 -123z" />
    <glyph glyph-name="uacute" unicode="&#xfa;" horiz-adv-x="551" 
d="M212 -8q-56 0 -88 37t-32 106v263h-74v52h151v-280q0 -69 26 -94q17 -20 61 -20t83 46q40 46 40 99v197h-77v52h155v-398h74v-52h-150v115q-72 -123 -169 -123zM354 723q38 1 38 -39q0 -18 -43 -74l-65 -83h-38l50 126q26 70 58 70z" />
    <glyph glyph-name="ucircumflex" unicode="&#xfb;" horiz-adv-x="551" 
d="M212 -8q-56 0 -88 37t-32 106v263h-74v52h151v-280q0 -69 26 -94q17 -20 61 -20t83 46q40 46 40 99v197h-77v52h155v-398h74v-52h-150v115q-72 -123 -169 -123zM144 528l108 181h37l109 -181h-39l-88 102l-88 -102h-39z" />
    <glyph glyph-name="udieresis" unicode="&#xfc;" horiz-adv-x="551" 
d="M212 -8q-56 0 -88 37t-32 106v263h-74v52h151v-280q0 -69 26 -94q17 -20 61 -20t83 46q40 46 40 99v197h-77v52h155v-398h74v-52h-150v115q-72 -123 -169 -123zM184 550q-22 0 -36 16t-15 38q1 23 15 39t36 16t37 -16t15 -39q0 -22 -15 -38t-37 -16zM358 550
q-22 0 -37 16t-15 38q0 23 15 39t37 16t36 -16t15 -39q-1 -22 -15 -38t-36 -16z" />
    <glyph glyph-name="yacute" unicode="&#xfd;" horiz-adv-x="489" 
d="M344 723q38 1 38 -39q0 -18 -43 -74l-65 -83h-38l50 126q26 70 58 70zM70 -33q24 -1 37 -15q14 -14 14 -35t-9 -35q30 2 56 27t53 92l-159 397h-62v52h224v-52h-78l116 -309l120 309h-69v52h180v-52h-55l-155 -380q-73 -181 -175 -181q-46 -1 -70 19t-24 48t16 46t40 17z
" />
    <glyph glyph-name="thorn" unicode="&#xfe;" horiz-adv-x="525" 
d="M283 48q51 0 83 48t32 134q0 88 -31 132t-83 44t-90 -54t-38 -132t38 -124q38 -48 89 -48zM311 458q65 0 118 -52t53 -171t-57 -177t-124 -58q-97 0 -143 91v-189h97v-52h-249v52h75v731h-75v54h152v-334q55 105 153 105z" />
    <glyph glyph-name="ydieresis" unicode="&#xff;" horiz-adv-x="489" 
d="M348 550q-22 0 -37 16t-15 38q0 23 15 39t37 16t36 -16t15 -39q-1 -22 -15 -38t-36 -16zM174 550q-22 0 -36 16t-15 38q1 23 15 39t36 16t37 -16t15 -39q0 -22 -15 -38t-37 -16zM70 -33q24 -1 37 -15q14 -14 14 -35t-9 -35q30 2 56 27t53 92l-159 397h-62v52h224v-52h-78
l116 -309l120 309h-69v52h180v-52h-55l-155 -380q-73 -181 -175 -181q-46 -1 -70 19t-24 48t16 46t40 17z" />
    <glyph glyph-name="Amacron" unicode="&#x100;" horiz-adv-x="672" 
d="M215 756v62h251v-62h-251zM320 559l-106 -277h207l-98 277h-3zM215 52v-52h-219v52h70l238 605h70l222 -605h84v-52h-280v52h103l-65 183h-242l-69 -183h88z" />
    <glyph glyph-name="amacron" unicode="&#x101;" horiz-adv-x="483" 
d="M119 546v62h251v-62h-251zM209 46q41 0 75 29t35 67v89q-11 -4 -69 -13q-58 -10 -88 -30t-31 -64q0 -78 78 -78zM325 78q-51 -85 -157 -85q-54 0 -88 32q-34 33 -34 83t28 78t66 42q38 12 96 22q60 10 72 14t11 17v44q0 48 -23 69q-24 21 -74 21t-82 -26q27 -14 27 -41
q0 -56 -52 -56q-25 0 -39 15t-14 39q0 48 52 80t125 31q158 0 158 -135v-235q0 -40 30 -40q23 0 40 40l30 -17q-35 -75 -93 -75q-33 1 -54 21t-22 62h-3z" />
    <glyph glyph-name="Abreve" unicode="&#x102;" horiz-adv-x="672" 
d="M340 744q-56 0 -91 40t-38 110h31q26 -88 98 -88t98 88h31q-2 -70 -37 -110q-36 -40 -92 -40zM320 559l-106 -277h207l-98 277h-3zM215 52v-52h-219v52h70l238 605h70l222 -605h84v-52h-280v52h103l-65 183h-242l-69 -183h88z" />
    <glyph glyph-name="abreve" unicode="&#x103;" horiz-adv-x="483" 
d="M244 534q-56 0 -91 40t-38 110h31q26 -88 98 -88t98 88h31q-2 -70 -37 -110q-36 -40 -92 -40zM209 46q41 0 75 29t35 67v89q-11 -4 -69 -13q-58 -10 -88 -30t-31 -64q0 -78 78 -78zM325 78q-51 -85 -157 -85q-54 0 -88 32q-34 33 -34 83t28 78t66 42q38 12 96 22
q60 10 72 14t11 17v44q0 48 -23 69q-24 21 -74 21t-82 -26q27 -14 27 -41q0 -56 -52 -56q-25 0 -39 15t-14 39q0 48 52 80t125 31q158 0 158 -135v-235q0 -40 30 -40q23 0 40 40l30 -17q-35 -75 -93 -75q-33 1 -54 21t-22 62h-3z" />
    <glyph glyph-name="Aogonek" unicode="&#x104;" horiz-adv-x="672" 
d="M320 559l-106 -277h207l-98 277h-3zM575 -15q-75 -77 -75 -127t54 -50q24 0 55 22l19 -28q-44 -39 -92 -39q-48 -1 -74 23t-26 60t21 67t69 73l16 14h-142v52h103l-65 183h-242l-69 -183h88v-52h-219v52h70l238 605h70l222 -605h84v-52h-90z" />
    <glyph glyph-name="aogonek" unicode="&#x105;" horiz-adv-x="483" 
d="M209 46q41 0 75 29t35 67v89q-11 -4 -69 -13q-58 -10 -88 -30t-31 -64q0 -78 78 -78zM167 348q0 -56 -52 -56q-25 0 -39 15t-14 39q0 48 52 80t125 31q158 0 158 -135v-235q0 -40 30 -40q23 0 40 40l30 -17q-17 -38 -56 -76q-86 -85 -86 -135q1 -51 55 -51q24 0 55 22
l18 -28q-43 -39 -91 -39q-48 -1 -74 23t-27 60q1 36 23 70q22 32 79 80q-64 7 -65 82h-3q-51 -85 -157 -85q-54 0 -88 32t-34 86t42 88t167 54q42 7 53 11t11 17v44q0 48 -23 69q-24 21 -74 21t-82 -26q27 -14 27 -41z" />
    <glyph glyph-name="Cacute" unicode="&#x106;" horiz-adv-x="675" 
d="M340 -16q-125 0 -209 96t-84 244q1 148 89 246t210 98t192 -79l19 76h52v-247h-46q-66 195 -211 195q-94 1 -152 -73t-57 -210q-1 -136 59 -212t153 -77q93 1 148 59t69 155h56q-14 -129 -88 -200t-200 -71zM433 933q38 1 38 -39q0 -18 -43 -74l-65 -83h-38l50 126
q26 70 58 70z" />
    <glyph glyph-name="cacute" unicode="&#x107;" horiz-adv-x="472" 
d="M442 146q-39 -155 -204 -155q-83 -1 -141 63t-58 166t63 170q62 68 148 68t136 -40t50 -79q0 -37 -16 -57t-42 -20q-54 0 -54 63q0 32 38 45q-31 46 -96 46t-104 -52t-39 -138q1 -86 39 -134t105 -49q94 0 132 103h43zM345 723q38 1 38 -39q0 -18 -43 -74l-65 -83h-38
l50 126q26 70 58 70z" />
    <glyph glyph-name="Cdotaccent" unicode="&#x10a;" horiz-adv-x="675" 
d="M349 741q-23 -1 -38 15t-15 40t16 39q16 16 38 16q22 1 38 -15t15 -40q1 -24 -15 -39q-16 -16 -39 -16zM340 -16q-125 0 -209 96t-84 244q1 148 89 246t210 98t192 -79l19 76h52v-247h-46q-66 195 -211 195q-94 1 -152 -73t-57 -210q-1 -136 59 -212t153 -77q93 1 148 59
t69 155h56q-14 -129 -88 -200t-200 -71z" />
    <glyph glyph-name="cdotaccent" unicode="&#x10b;" horiz-adv-x="472" 
d="M261 531q-23 -1 -38 15t-15 40t16 39q16 16 38 16q22 1 38 -15t15 -40q1 -24 -15 -39q-16 -16 -39 -16zM442 146q-39 -155 -204 -155q-83 -1 -141 63t-58 166t63 170q62 68 148 68t136 -40t50 -79q0 -37 -16 -57t-42 -20q-54 0 -54 63q0 32 38 45q-31 46 -96 46t-104 -52
t-39 -138q1 -86 39 -134t105 -49q94 0 132 103h43z" />
    <glyph glyph-name="Ccaron" unicode="&#x10c;" horiz-adv-x="675" 
d="M340 -16q-125 0 -209 96t-84 244q1 148 89 246t210 98t192 -79l19 76h52v-247h-46q-66 195 -211 195q-94 1 -152 -73t-57 -210q-1 -136 59 -212t153 -77q93 1 148 59t69 155h56q-14 -129 -88 -200t-200 -71zM333 747l-109 181h39l88 -101l88 101h39l-108 -181h-37z" />
    <glyph glyph-name="ccaron" unicode="&#x10d;" horiz-adv-x="472" 
d="M442 146q-39 -155 -204 -155q-83 -1 -141 63t-58 166t63 170q62 68 148 68t136 -40t50 -79q0 -37 -16 -57t-42 -20q-54 0 -54 63q0 32 38 45q-31 46 -96 46t-104 -52t-39 -138q1 -86 39 -134t105 -49q94 0 132 103h43zM245 537l-109 181h39l88 -101l88 101h39l-108 -181
h-37z" />
    <glyph glyph-name="Dcaron" unicode="&#x10e;" horiz-adv-x="704" 
d="M227 52h83q132 0 192 68t61 208q0 140 -63 206t-197 67h-76v-549zM32 0v52h111v549h-111v51h270q175 0 266 -85t91 -233q-1 -148 -89 -240q-88 -94 -262 -94h-276zM345 747l-109 181h39l88 -101l88 101h39l-108 -181h-37z" />
    <glyph glyph-name="dcaron" unicode="&#x10f;" horiz-adv-x="535" 
d="M244 44q52 0 89 52t37 134q0 80 -34 128t-90 48q-55 0 -87 -48t-32 -134q0 -84 33 -132q32 -48 84 -48zM218 -8q-67 0 -111 44q-65 64 -65 184t69 190q48 48 116 48q95 0 140 -87v262h-76v54h153v-635h72v-52h-147v98q-52 -106 -151 -106zM557 751q35 0 35 -42
q0 -19 -12 -63l-30 -114h-32l-3 144q-1 75 42 75z" />
    <glyph glyph-name="Dcroat" unicode="&#x110;" horiz-adv-x="704" 
d="M227 52h83q132 0 192 68t61 208q0 140 -63 206t-197 67h-76v-234h143v-51h-143v-264zM32 0v52h111v264h-111v51h111v234h-111v51h270q175 0 266 -85t91 -233q-1 -148 -89 -240q-88 -94 -262 -94h-276z" />
    <glyph glyph-name="dcroat" unicode="&#x111;" horiz-adv-x="535" 
d="M244 44q52 0 89 52t37 134q0 80 -34 128t-90 48q-55 0 -87 -48t-32 -134q0 -84 33 -132q32 -48 84 -48zM218 -8q-67 0 -111 44q-65 64 -65 184t69 190q48 48 116 48q95 0 140 -87v139h-129v44h129v79h-76v54h153v-133h72v-44h-72v-458h72v-52h-147v98q-52 -106 -151 -106
z" />
    <glyph glyph-name="Emacron" unicode="&#x112;" horiz-adv-x="657" 
d="M231 756v62h251v-62h-251zM32 0v52h111v549h-111v51h558v-204h-39q-21 100 -37 126t-62 27h-225v-243h99q45 0 58 16t24 84h41v-249h-41q-10 70 -24 87t-58 17h-99v-261h223q52 0 70 29t40 143h39v-224h-567z" />
    <glyph glyph-name="emacron" unicode="&#x113;" horiz-adv-x="476" 
d="M127 546v62h251v-62h-251zM248 415q-51 0 -84 -39t-40 -112h235q-11 151 -111 151zM39 220q-1 102 61 170t154 68t139 -70q48 -70 46 -167h-316q1 -85 40 -131t104 -46q93 0 128 88h42q-41 -141 -187 -141q-97 -1 -154 63t-57 166z" />
    <glyph glyph-name="Ebreve" unicode="&#x114;" horiz-adv-x="657" 
d="M356 744q-56 0 -91 40t-38 110h31q26 -88 98 -88t98 88h31q-2 -70 -37 -110q-36 -40 -92 -40zM32 0v52h111v549h-111v51h558v-204h-39q-21 100 -37 126t-62 27h-225v-243h99q45 0 58 16t24 84h41v-249h-41q-10 70 -24 87t-58 17h-99v-261h223q52 0 70 29t40 143h39v-224
h-567z" />
    <glyph glyph-name="ebreve" unicode="&#x115;" horiz-adv-x="476" 
d="M252 534q-56 0 -91 40t-38 110h31q26 -88 98 -88t98 88h31q-2 -70 -37 -110q-36 -40 -92 -40zM248 415q-51 0 -84 -39t-40 -112h235q-11 151 -111 151zM39 220q-1 102 61 170t154 68t139 -70q48 -70 46 -167h-316q1 -85 40 -131t104 -46q93 0 128 88h42
q-41 -141 -187 -141q-97 -1 -154 63t-57 166z" />
    <glyph glyph-name="Edotaccent" unicode="&#x116;" horiz-adv-x="657" 
d="M356 741q-22 -1 -38 15t-15 40q-1 24 15 39q16 16 38 16q22 1 38 -15t16 -40t-16 -39q-16 -16 -38 -16zM32 0v52h111v549h-111v51h558v-204h-39q-21 100 -37 126t-62 27h-225v-243h99q45 0 58 16t24 84h41v-249h-41q-10 70 -24 87t-58 17h-99v-261h223q52 0 70 29t40 143
h39v-224h-567z" />
    <glyph glyph-name="edotaccent" unicode="&#x117;" horiz-adv-x="476" 
d="M251 531q-23 -1 -38 15t-15 40t16 39q16 16 38 16q22 1 38 -15t15 -40q1 -24 -15 -39q-16 -16 -39 -16zM248 415q-51 0 -84 -39t-40 -112h235q-11 151 -111 151zM39 220q-1 102 61 170t154 68t139 -70q48 -70 46 -167h-316q1 -85 40 -131t104 -46q93 0 128 88h42
q-41 -141 -187 -141q-97 -1 -154 63t-57 166z" />
    <glyph glyph-name="Eogonek" unicode="&#x118;" horiz-adv-x="657" 
d="M548 -15q-75 -77 -75 -127t54 -50q24 0 55 22l19 -28q-43 -39 -91 -39q-48 -1 -74 23t-27 60q0 36 21 67t69 73l16 14h-483v52h111v549h-111v51h558v-204h-39q-21 100 -37 126t-62 27h-225v-243h99q45 0 58 16t24 84h41v-249h-41q-10 70 -24 87t-58 17h-99v-261h223
q52 0 70 29t40 143h39v-224h-36z" />
    <glyph glyph-name="eogonek" unicode="&#x119;" horiz-adv-x="476" 
d="M248 415q-51 0 -84 -39t-40 -112h235q-11 151 -111 151zM267 44q93 0 128 88h42q-16 -52 -67 -112l-39 -43q-66 -75 -66 -109q0 -60 52 -60q27 0 58 22l18 -28q-43 -39 -91 -39q-48 -1 -74 23t-27 60q0 36 21 66t68 73l13 12q-30 -6 -53 -6q-97 -1 -154 63t-57 166
q-1 102 61 170t154 68t139 -70q48 -70 46 -167h-316q1 -85 40 -131t104 -46z" />
    <glyph glyph-name="Ecaron" unicode="&#x11a;" horiz-adv-x="657" 
d="M32 0v52h111v549h-111v51h558v-204h-39q-21 100 -37 126t-62 27h-225v-243h99q45 0 58 16t24 84h41v-249h-41q-10 70 -24 87t-58 17h-99v-261h223q52 0 70 29t40 143h39v-224h-567zM340 747l-109 181h39l88 -101l88 101h39l-108 -181h-37z" />
    <glyph glyph-name="ecaron" unicode="&#x11b;" horiz-adv-x="476" 
d="M235 537l-109 181h39l88 -101l88 101h39l-108 -181h-37zM248 415q-51 0 -84 -39t-40 -112h235q-11 151 -111 151zM39 220q-1 102 61 170t154 68t139 -70q48 -70 46 -167h-316q1 -85 40 -131t104 -46q93 0 128 88h42q-41 -141 -187 -141q-97 -1 -154 63t-57 166z" />
    <glyph glyph-name="Gbreve" unicode="&#x11e;" 
d="M350 744q-56 0 -92 40q-35 40 -38 110h31q26 -88 98 -88t98 88h31q-2 -70 -37 -110t-91 -40zM342 -16q-130 0 -212 98t-83 242q1 144 87 244t207 100t190 -79l19 76h52v-244h-46q-65 192 -205 192q-97 0 -153 -73t-55 -208q0 -134 57 -212t148 -78t137 61q40 49 40 140
v26h-122v52h296v-52h-89v-276h-49l-29 94q-60 -103 -190 -103z" />
    <glyph glyph-name="gbreve" unicode="&#x11f;" horiz-adv-x="469" 
d="M230 534q-56 0 -92 40q-35 40 -38 110h31q26 -88 98 -88t98 88h31q-2 -70 -37 -110t-91 -40zM222 -119q69 -1 111 23t42 62q0 56 -71 56h-112q-94 0 -94 -70t124 -71zM230 203q92 0 92 108q0 47 -26 77t-71 31q-92 0 -92 -109q1 -53 27 -80t70 -27zM437 434q-40 0 -40 40
q0 6 1 10q-14 1 -32 -15t-32 -41q70 -43 70 -114t-48 -110t-128 -39l-61 3q-23 0 -38 -12t-15 -29q0 -40 79 -40h119q132 0 132 -101q0 -63 -61 -105t-157 -42t-150 29q-52 29 -52 68q0 38 26 64t70 33v3q-74 22 -74 73q0 25 24 47t61 30q-79 40 -79 116t50 115
q50 40 107 40t93 -14q52 89 121 89q26 0 42 -14t16 -36q-1 -20 -13 -34t-31 -14z" />
    <glyph glyph-name="Gdotaccent" unicode="&#x120;" 
d="M349 741q-23 -1 -38 15t-15 40t16 39q16 16 38 16q22 1 38 -15t15 -40q1 -24 -15 -39q-16 -16 -39 -16zM342 -16q-130 0 -212 98t-83 242q1 144 87 244t207 100t190 -79l19 76h52v-244h-46q-65 192 -205 192q-97 0 -153 -73t-55 -208q0 -134 57 -212t148 -78t137 61
q40 49 40 140v26h-122v52h296v-52h-89v-276h-49l-29 94q-60 -103 -190 -103z" />
    <glyph glyph-name="gdotaccent" unicode="&#x121;" horiz-adv-x="469" 
d="M229 531q-23 -1 -38 15t-15 40t16 39q16 16 38 16q22 1 38 -15t15 -40q1 -24 -15 -39q-16 -16 -39 -16zM222 -119q69 -1 111 23t42 62q0 56 -71 56h-112q-94 0 -94 -70t124 -71zM230 203q92 0 92 108q0 47 -26 77t-71 31q-92 0 -92 -109q1 -53 27 -80t70 -27zM437 434
q-40 0 -40 40q0 6 1 10q-14 1 -32 -15t-32 -41q70 -43 70 -114t-48 -110t-128 -39l-61 3q-23 0 -38 -12t-15 -29q0 -40 79 -40h119q132 0 132 -101q0 -63 -61 -105t-157 -42t-150 29q-52 29 -52 68q0 38 26 64t70 33v3q-74 22 -74 73q0 25 24 47t61 30q-79 40 -79 116
t50 115q50 40 107 40t93 -14q52 89 121 89q26 0 42 -14t16 -36q-1 -20 -13 -34t-31 -14z" />
    <glyph glyph-name="Gcommaaccent" unicode="&#x122;" 
d="M342 -16q-130 0 -212 98t-83 242q1 144 87 244t207 100t190 -79l19 76h52v-244h-46q-65 192 -205 192q-97 0 -153 -73t-55 -208q0 -134 57 -212t148 -78t137 61q40 49 40 140v26h-122v52h296v-52h-89v-276h-49l-29 94q-60 -103 -190 -103zM333 -177q-15 -1 -27 13t-13 34
q0 20 15 37q15 16 40 16t41 -19t16 -50q0 -98 -109 -147l-15 29q73 36 81 92l-3 2q-11 -7 -26 -7z" />
    <glyph glyph-name="gcommaaccent" unicode="&#x123;" horiz-adv-x="469" 
d="M245 631q15 1 27 -13t13 -34q0 -20 -15 -37q-15 -16 -40 -16t-41 19t-16 50q0 98 109 147l15 -29q-73 -36 -81 -92l3 -2q11 7 26 7zM222 -119q69 -1 111 23t42 62q0 56 -71 56h-112q-94 0 -94 -70t124 -71zM230 203q92 0 92 108q0 47 -26 77t-71 31q-92 0 -92 -109
q1 -53 27 -80t70 -27zM437 434q-40 0 -40 40q0 6 1 10q-14 1 -32 -15t-32 -41q70 -43 70 -114t-48 -110t-128 -39l-61 3q-23 0 -38 -12t-15 -29q0 -40 79 -40h119q132 0 132 -101q0 -63 -61 -105t-157 -42t-150 29q-52 29 -52 68q0 38 26 64t70 33v3q-74 22 -74 73
q0 25 24 47t61 30q-79 40 -79 116t50 115q50 40 107 40t93 -14q52 89 121 89q26 0 42 -14t16 -36q-1 -20 -13 -34t-31 -14z" />
    <glyph glyph-name="Hbar" unicode="&#x126;" horiz-adv-x="772" 
d="M227 351h317v102h-317v-102zM32 453v46h111v102h-111v51h293v-51h-98v-102h317v102h-97v51h293v-51h-111v-102h111v-46h-111v-401h111v-52h-293v52h97v252h-317v-252h98v-52h-293v52h111v401h-111z" />
    <glyph glyph-name="hbar" unicode="&#x127;" horiz-adv-x="556" 
d="M388 280q0 114 -83 114q-49 0 -89 -46t-41 -100v-196h68v-52h-221v52h75v458h-75v44h75v79h-75v54h153v-133h126v-44h-126v-174q69 121 168 121q58 0 90 -37t32 -105v-263h75v-52h-221v52h69v228z" />
    <glyph glyph-name="Imacron" unicode="&#x12a;" horiz-adv-x="384" 
d="M66 756v62h251v-62h-251zM39 0v52h110v549h-110v51h306v-51h-111v-549h111v-52h-306z" />
    <glyph glyph-name="imacron" unicode="&#x12b;" horiz-adv-x="300" 
d="M22 546v62h251v-62h-251zM36 0v52h85v346h-85v52h162v-398h85v-52h-247z" />
    <glyph glyph-name="Ibreve" unicode="&#x12c;" horiz-adv-x="384" 
d="M192 744q-56 0 -92 40q-35 40 -38 110h31q26 -88 98 -88t98 88h31q-2 -70 -37 -110t-91 -40zM39 0v52h110v549h-110v51h306v-51h-111v-549h111v-52h-306z" />
    <glyph glyph-name="ibreve" unicode="&#x12d;" horiz-adv-x="300" 
d="M148 534q-56 0 -92 40q-35 40 -38 110h31q26 -88 98 -88t98 88h31q-2 -70 -37 -110t-91 -40zM36 0v52h85v346h-85v52h162v-398h85v-52h-247z" />
    <glyph glyph-name="Iogonek" unicode="&#x12e;" horiz-adv-x="384" 
d="M229 -15q-75 -77 -75 -127t54 -50q24 0 55 22l19 -28q-44 -39 -92 -39q-48 -1 -74 23t-26 60t21 67t69 73l16 14h-157v52h110v549h-110v51h306v-51h-111v-549h111v-52h-101z" />
    <glyph glyph-name="iogonek" unicode="&#x12f;" horiz-adv-x="300" 
d="M154 552q-24 0 -41 15q-16 15 -16 41t16 42q17 16 41 16t40 -16t15 -41q1 -25 -15 -41t-40 -16zM195 -15q-75 -77 -75 -127t54 -50q24 0 55 22l19 -28q-44 -39 -92 -39q-48 -1 -74 23t-26 60t21 67t69 73l16 14h-126v52h85v346h-85v52h162v-398h85v-52h-73z" />
    <glyph glyph-name="Idotaccent" unicode="&#x130;" horiz-adv-x="384" 
d="M191 741q-23 -1 -38 15t-15 40t16 39q16 16 38 16q22 1 38 -15t15 -40q1 -24 -15 -39q-16 -16 -39 -16zM39 0v52h110v549h-110v51h306v-51h-111v-549h111v-52h-306z" />
    <glyph glyph-name="dotlessi" unicode="&#x131;" horiz-adv-x="300" 
d="M36 0v52h85v346h-85v52h162v-398h85v-52h-247z" />
    <glyph glyph-name="Kcommaaccent" unicode="&#x136;" horiz-adv-x="717" 
d="M345 -177q-15 -1 -27 13t-13 34q0 20 15 37q15 16 40 16t41 -19t16 -50q0 -98 -109 -147l-15 29q73 36 81 92l-3 2q-11 -7 -26 -7zM227 52h98v-52h-293v52h111v549h-111v51h293v-51h-98v-305l298 305h-90v51h251v-51h-84l-221 -219l246 -330h80v-52h-274v52h90l-199 273
l-97 -96v-177z" />
    <glyph glyph-name="kcommaaccent" unicode="&#x137;" horiz-adv-x="522" 
d="M240 -177q-16 -1 -28 13t-12 34t15 37q15 16 40 16t41 -19t16 -50q0 -98 -109 -147l-15 29q73 36 81 92l-3 2q-11 -7 -26 -7zM512 52v-52h-205v51h60l-119 173l-73 -74v-98h62v-52h-215v52h75v581h-75v54h153v-481l182 193h-75v51h208v-52h-68l-123 -125l156 -221h57z
" />
    <glyph glyph-name="Lacute" unicode="&#x139;" horiz-adv-x="606" 
d="M32 652h312v-51h-117v-549h197q43 0 60 33t46 160h39v-245h-537v52h111v549h-111v51zM272 933q38 1 38 -39q0 -18 -43 -74l-65 -83h-38l50 126q26 70 58 70z" />
    <glyph glyph-name="lacute" unicode="&#x13a;" horiz-adv-x="284" 
d="M18 0v52h85v581h-85v54h163v-635h84v-52h-247zM215 960q38 0 38 -40q0 -18 -43 -73l-65 -83h-38l50 126q26 70 58 70z" />
    <glyph glyph-name="Lcommaaccent" unicode="&#x13b;" horiz-adv-x="606" 
d="M32 652h312v-51h-117v-549h197q43 0 60 33t46 160h39v-245h-537v52h111v549h-111v51zM301 -177q-15 -1 -27 13t-13 34q0 20 15 37q15 16 40 16t41 -19t16 -50q0 -98 -109 -147l-15 29q73 36 81 92l-3 2q-11 -7 -26 -7z" />
    <glyph glyph-name="lcommaaccent" unicode="&#x13c;" horiz-adv-x="284" 
d="M18 0v52h85v581h-85v54h163v-635h84v-52h-247zM125 -177q-15 -1 -27 13t-13 34q0 20 15 37q15 16 40 16t41 -19t16 -50q0 -98 -109 -147l-15 29q73 36 81 92l-3 2q-11 -7 -26 -7z" />
    <glyph glyph-name="Lcaron" unicode="&#x13d;" horiz-adv-x="606" 
d="M32 652h312v-51h-117v-549h197q43 0 60 33t46 160h39v-245h-537v52h111v549h-111v51zM452 717q35 0 35 -42q0 -19 -12 -63l-30 -114h-32l-3 144q-1 75 42 75z" />
    <glyph glyph-name="lcaron" unicode="&#x13e;" horiz-adv-x="284" 
d="M18 0v52h85v581h-85v54h163v-635h84v-52h-247zM294 751q35 0 35 -42q0 -19 -12 -63l-30 -114h-32l-3 144q-1 75 42 75z" />
    <glyph glyph-name="Ldot" unicode="&#x13f;" horiz-adv-x="606" 
d="M474 307q-22 0 -38 15q-15 14 -15 38q-1 24 15 40t38 16t38 -16q15 -16 15 -38q1 -24 -15 -40t-38 -15zM32 652h312v-51h-117v-549h197q43 0 60 31t46 151h39v-234h-537v52h111v549h-111v51z" />
    <glyph glyph-name="ldot" unicode="&#x140;" horiz-adv-x="359" 
d="M18 0v52h85v581h-85v54h163v-635h84v-52h-247zM322 295q-22 1 -38 15q-15 14 -15 38q-1 24 15 38q16 16 38 16t37 -15t15 -39t-15 -38q-15 -15 -37 -15z" />
    <glyph glyph-name="Lslash" unicode="&#x141;" horiz-adv-x="606" 
d="M32 652h312v-51h-117v-237l179 59v-49l-179 -60v-262h197q43 0 60 33t46 160h39v-245h-537v52h111v233l-87 -29v51l87 29v265h-111v51z" />
    <glyph glyph-name="lslash" unicode="&#x142;" horiz-adv-x="300" 
d="M26 0v52h85v259l-85 -28v46l85 29v275h-85v54h163v-303l91 31v-47l-91 -31v-285h84v-52h-247z" />
    <glyph glyph-name="Nacute" unicode="&#x143;" horiz-adv-x="767" 
d="M196 546v-494h100v-52h-262v52h104v549h-104v51h196l350 -506h5v455h-101v51h259v-51h-99v-617h-55l-388 562h-5zM469 933q38 1 38 -39q0 -18 -43 -74l-65 -83h-38l50 126q26 70 58 70z" />
    <glyph glyph-name="nacute" unicode="&#x144;" horiz-adv-x="568" 
d="M400 280q0 114 -83 114q-49 0 -89 -46t-41 -100v-196h68v-52h-221v52h75v346h-75v52h151v-116q71 123 170 123q58 0 90 -37t32 -105v-263h75v-52h-221v52h69v228zM378 723q38 1 38 -39q0 -18 -43 -74l-65 -83h-38l50 126q26 70 58 70z" />
    <glyph glyph-name="Ncommaaccent" unicode="&#x145;" horiz-adv-x="767" 
d="M196 546v-494h100v-52h-262v52h104v549h-104v51h196l350 -506h5v455h-101v51h259v-51h-99v-617h-55l-388 562h-5zM373 -177q-15 -1 -27 13t-13 34q0 20 15 37q15 16 40 16t41 -19t16 -50q0 -98 -109 -147l-15 29q73 36 81 92l-3 2q-11 -7 -26 -7z" />
    <glyph glyph-name="ncommaaccent" unicode="&#x146;" horiz-adv-x="568" 
d="M400 280q0 114 -83 114q-49 0 -89 -46t-41 -100v-196h68v-52h-221v52h75v346h-75v52h151v-116q71 123 170 123q58 0 90 -37t32 -105v-263h75v-52h-221v52h69v228zM281 -177q-15 -1 -27 13t-13 34q0 20 15 37q15 16 40 16t41 -19t16 -50q0 -98 -109 -147l-15 29
q73 36 81 92l-3 2q-11 -7 -26 -7z" />
    <glyph glyph-name="Ncaron" unicode="&#x147;" horiz-adv-x="767" 
d="M196 546v-494h100v-52h-262v52h104v549h-104v51h196l350 -506h5v455h-101v51h259v-51h-99v-617h-55l-388 562h-5zM370 747l-109 181h39l88 -101l88 101h39l-108 -181h-37z" />
    <glyph glyph-name="ncaron" unicode="&#x148;" horiz-adv-x="568" 
d="M400 280q0 114 -83 114q-49 0 -89 -46t-41 -100v-196h68v-52h-221v52h75v346h-75v52h151v-116q71 123 170 123q58 0 90 -37t32 -105v-263h75v-52h-221v52h69v228zM278 537l-109 181h39l88 -101l88 101h39l-108 -181h-37z" />
    <glyph glyph-name="Omacron" unicode="&#x14c;" 
d="M356 37q100 -1 156 77q57 78 57 212t-57 210q-56 78 -156 78t-156 -78t-57 -210q1 -133 57 -211t156 -78zM354 -16q-130 0 -218 96q-89 96 -89 244q1 147 91 245t220 98q130 1 218 -95t88 -244t-90 -246t-220 -98zM230 756v62h251v-62h-251z" />
    <glyph glyph-name="omacron" unicode="&#x14d;" horiz-adv-x="512" 
d="M259 35q59 0 94 48t35 142q0 93 -38 141t-97 48t-95 -48t-35 -142t39 -141q38 -48 97 -48zM254 -9q-94 -1 -154 63t-61 168q0 104 62 170q63 66 157 66t154 -64t61 -166q0 -104 -62 -170q-63 -66 -157 -67zM130 546v62h251v-62h-251z" />
    <glyph glyph-name="Obreve" unicode="&#x14e;" 
d="M356 744q-56 0 -92 40q-35 40 -38 110h31q26 -88 98 -88t98 88h31q-2 -70 -37 -110t-91 -40zM356 37q100 -1 156 77q57 78 57 212t-57 210q-56 78 -156 78t-156 -78t-57 -210q1 -133 57 -211t156 -78zM354 -16q-130 0 -218 96q-89 96 -89 244q1 147 91 245t220 98
q130 1 218 -95t88 -244t-90 -246t-220 -98z" />
    <glyph glyph-name="obreve" unicode="&#x14f;" horiz-adv-x="512" 
d="M256 534q-56 0 -92 40q-35 40 -38 110h31q26 -88 98 -88t98 88h31q-2 -70 -37 -110t-91 -40zM259 35q59 0 94 48t35 142q0 93 -38 141t-97 48t-95 -48t-35 -142t39 -141q38 -48 97 -48zM254 -9q-94 -1 -154 63t-61 168q0 104 62 170q63 66 157 66t154 -64t61 -166
q0 -104 -62 -170q-63 -66 -157 -67z" />
    <glyph glyph-name="Ohungarumlaut" unicode="&#x150;" 
d="M356 37q100 -1 156 77q57 78 57 212t-57 210q-56 78 -156 78t-156 -78t-57 -210q1 -133 57 -211t156 -78zM354 -16q-130 0 -218 96q-89 96 -89 244q1 147 91 245t220 98q130 1 218 -95t88 -244t-90 -246t-220 -98zM380 933q36 0 36 -39q0 -19 -44 -73l-69 -84h-38l55 126
q30 70 60 70zM524 933q36 1 36 -39q0 -20 -44 -73l-69 -84h-38l55 126q18 39 30 55q14 16 30 15z" />
    <glyph glyph-name="ohungarumlaut" unicode="&#x151;" horiz-adv-x="512" 
d="M259 35q59 0 94 48t35 142q0 93 -38 141t-97 48t-95 -48t-35 -142t39 -141q38 -48 97 -48zM254 -9q-94 -1 -154 63t-61 168q0 104 62 170q63 66 157 66t154 -64t61 -166q0 -104 -62 -170q-63 -66 -157 -67zM280 723q36 0 36 -39q0 -19 -44 -73l-69 -84h-38l55 126
q30 70 60 70zM424 723q36 1 36 -39q0 -20 -44 -73l-69 -84h-38l55 126q18 39 30 55q14 16 30 15z" />
    <glyph glyph-name="OE" unicode="&#x152;" horiz-adv-x="991" 
d="M401 52h76v549h-83q-131 0 -192 -69t-61 -208q0 -140 63 -206t197 -66zM403 0q-175 0 -266 85t-91 233t88 240q88 94 263 94h527v-204h-39q-21 100 -37 126t-62 27h-224v-243h98q45 0 58 16t24 84h41v-249h-41q-10 70 -24 87t-58 17h-98v-261h222q52 0 70 29t40 143h39
v-224h-530z" />
    <glyph glyph-name="oe" unicode="&#x153;" horiz-adv-x="823" 
d="M596 415q-51 0 -84 -39t-40 -112h234q-11 151 -110 151zM259 35q59 0 94 48t35 142q0 93 -38 141t-97 48t-95 -48t-35 -142t39 -141q38 -48 97 -48zM614 44q93 0 128 88h42q-41 -141 -187 -141q-116 0 -170 98q-60 -98 -163 -98q-104 -1 -164 63t-61 168q0 104 62 170
t168 66t163 -98q60 98 160 98q101 0 149 -70t46 -167h-316q1 -85 39 -131t104 -46z" />
    <glyph glyph-name="Racute" unicode="&#x154;" horiz-adv-x="677" 
d="M227 341h118q148 0 148 141q0 119 -135 119h-131v-260zM227 293v-241h110v-52h-305v52h111v549h-111v51h319q121 0 179 -47t59 -113q0 -140 -157 -169v-6q67 -15 96 -49t34 -93l6 -82q4 -46 35 -46q25 0 47 47l34 -16q-34 -89 -105 -89q-100 0 -103 117l-2 79
q-2 59 -27 83t-96 25h-124zM430 933q38 1 38 -39q0 -18 -43 -74l-65 -83h-38l50 126q26 70 58 70z" />
    <glyph glyph-name="racute" unicode="&#x155;" horiz-adv-x="405" 
d="M34 0v52h75v346h-75v52h151v-106q21 56 58 84t74 28t57 -20t20 -46t-16 -44q-16 -17 -38 -17q-22 1 -38 15t-16 31t4 25q-34 4 -63 -30t-40 -75v-243h88v-52h-241zM305 723q38 1 38 -39q0 -18 -43 -74l-65 -83h-38l50 126q26 70 58 70z" />
    <glyph glyph-name="Rcommaaccent" unicode="&#x156;" horiz-adv-x="677" 
d="M227 341h118q148 0 148 141q0 119 -135 119h-131v-260zM227 293v-241h110v-52h-305v52h111v549h-111v51h319q121 0 179 -47t59 -113q0 -140 -157 -169v-6q67 -15 96 -49t34 -93l6 -82q4 -46 35 -46q25 0 47 47l34 -16q-34 -89 -105 -89q-100 0 -103 117l-2 79
q-2 59 -27 83t-96 25h-124zM340 -177q-16 -1 -28 13t-12 34t15 37q15 16 40 16t41 -19t16 -50q0 -98 -109 -147l-15 29q73 36 81 92l-3 2q-10 -7 -26 -7z" />
    <glyph glyph-name="rcommaaccent" unicode="&#x157;" horiz-adv-x="405" 
d="M34 0v52h75v346h-75v52h151v-106q21 56 58 84t74 28t57 -20t20 -46t-16 -44q-16 -17 -38 -17q-22 1 -38 15t-16 31t4 25q-34 4 -63 -30t-40 -75v-243h88v-52h-241zM139 -177q-15 -1 -27 13t-13 34q0 20 15 37q15 16 40 16t41 -19t16 -50q0 -98 -109 -147l-15 29
q73 36 81 92l-3 2q-11 -7 -26 -7z" />
    <glyph glyph-name="Rcaron" unicode="&#x158;" horiz-adv-x="677" 
d="M227 341h118q148 0 148 141q0 119 -135 119h-131v-260zM227 293v-241h110v-52h-305v52h111v549h-111v51h319q121 0 179 -47t59 -113q0 -140 -157 -169v-6q67 -15 96 -49t34 -93l6 -82q4 -46 35 -46q25 0 47 47l34 -16q-34 -89 -105 -89q-100 0 -103 117l-2 79
q-2 59 -27 83t-96 25h-124zM330 747l-109 181h39l88 -101l88 101h39l-108 -181h-37z" />
    <glyph glyph-name="rcaron" unicode="&#x159;" horiz-adv-x="405" 
d="M34 0v52h75v346h-75v52h151v-106q21 56 58 84t74 28t57 -20t20 -46t-16 -44q-16 -17 -38 -17q-22 1 -38 15t-16 31t4 25q-34 4 -63 -30t-40 -75v-243h88v-52h-241zM206 537l-109 181h39l88 -101l88 101h39l-108 -181h-37z" />
    <glyph glyph-name="Sacute" unicode="&#x15a;" horiz-adv-x="572" 
d="M271 667q97 0 160 -72l20 69h49v-215h-45q-69 171 -196 171q-51 0 -84 -30t-33 -71t10 -61q19 -38 57 -55q39 -17 90 -30t71 -19t50 -17q110 -41 110 -165q0 -76 -60 -132t-164 -56t-180 81l-22 -78h-49v227h45q46 -98 98 -140t118 -42t100 32q36 32 36 72q0 42 -10 62
q-18 38 -60 57t-94 32q-53 14 -77 22q-69 23 -108 62t-39 114t55 129t152 53zM372 933q38 1 38 -39q0 -18 -43 -74l-65 -83h-38l50 126q26 70 58 70z" />
    <glyph glyph-name="sacute" unicode="&#x15b;" horiz-adv-x="433" 
d="M45 -9v170h46q18 -61 57 -95t86 -34q94 0 94 70q0 33 -26 52t-103 40q-76 21 -111 52t-35 83q1 53 43 91t116 38t109 -54l11 54h44v-154h-44q-25 59 -53 86q-29 27 -69 27q-40 1 -64 -17t-23 -48q-1 -30 27 -50t102 -40t109 -50t35 -84t-44 -96t-122 -41q-80 0 -130 63
l-11 -63h-44zM303 723q38 1 38 -39q0 -18 -43 -74l-65 -83h-38l50 126q26 70 58 70z" />
    <glyph glyph-name="Scedilla" unicode="&#x15e;" horiz-adv-x="572" 
d="M271 667q97 0 160 -72l20 69h49v-215h-45q-69 171 -196 171q-51 0 -84 -30t-33 -71t10 -61q19 -38 57 -55q39 -17 90 -30t71 -19t50 -17q110 -41 110 -163q0 -72 -54 -128t-139 -61l-51 -52l1 -3q49 -1 77 -23t28 -59t-30 -61t-80 -24q-52 0 -97 30l19 32q38 -23 74 -23
q57 0 57 43q0 22 -20 34t-45 12t-43 -5l-14 19l77 81q-98 9 -164 79l-22 -78h-49v227h45q46 -98 98 -140t118 -42t100 32q36 32 36 72q0 42 -10 62q-18 38 -60 57t-94 32q-53 14 -77 22q-69 23 -108 62t-39 114t55 129t152 53z" />
    <glyph glyph-name="scedilla" unicode="&#x15f;" horiz-adv-x="433" 
d="M199 -198q57 0 57 43q0 22 -20 34t-45 12t-43 -5l-14 19l83 87q-76 9 -117 62l-11 -63h-44v170h46q18 -61 57 -95t86 -34q94 0 94 70q0 33 -26 52t-103 40q-76 21 -111 52t-35 83q1 53 43 91t116 38t109 -54l11 54h44v-154h-44q-25 59 -53 86q-29 27 -69 27
q-40 1 -64 -17t-23 -48q-1 -30 27 -50t102 -40t109 -50q35 -29 35 -81t-35 -91t-94 -47l-60 -60l1 -3q48 -1 76 -23t29 -59t-29 -61t-82 -24t-96 30l19 32q38 -23 74 -23z" />
    <glyph glyph-name="Scaron" unicode="&#x160;" horiz-adv-x="572" 
d="M271 667q97 0 160 -72l20 69h49v-215h-45q-69 171 -196 171q-51 0 -84 -30t-33 -71t10 -61q19 -38 57 -55q39 -17 90 -30t71 -19t50 -17q110 -41 110 -165q0 -76 -60 -132t-164 -56t-180 81l-22 -78h-49v227h45q46 -98 98 -140t118 -42t100 32q36 32 36 72q0 42 -10 62
q-18 38 -60 57t-94 32q-53 14 -77 22q-69 23 -108 62t-39 114t55 129t152 53zM272 747l-109 181h39l88 -101l88 101h39l-108 -181h-37z" />
    <glyph glyph-name="scaron" unicode="&#x161;" horiz-adv-x="433" 
d="M45 -9v170h46q18 -61 57 -95t86 -34q94 0 94 70q0 33 -26 52t-103 40q-76 21 -111 52t-35 83q1 53 43 91t116 38t109 -54l11 54h44v-154h-44q-25 59 -53 86q-29 27 -69 27q-40 1 -64 -17t-23 -48q-1 -30 27 -50t102 -40t109 -50t35 -84t-44 -96t-122 -41q-80 0 -130 63
l-11 -63h-44zM203 537l-109 181h39l88 -101l88 101h39l-108 -181h-37z" />
    <glyph glyph-name="Tcommaaccent" unicode="&#x162;" horiz-adv-x="670" 
d="M178 0v52h115v553h-89q-55 -1 -74 -31t-46 -148h-38v226h578v-226h-38q-27 118 -46 148t-75 31h-88v-553h115v-52h-314zM320 -177q-16 -1 -28 13t-12 34t15 37q15 16 40 16t41 -19t16 -50q0 -98 -109 -147l-15 29q73 36 81 92l-3 2q-11 -7 -26 -7z" />
    <glyph glyph-name="tcommaaccent" unicode="&#x163;" horiz-adv-x="350" 
d="M212 -9q-114 0 -114 122v285h-91v49h91v120l78 10v-130h147v-49h-147v-283q0 -70 56 -70q47 0 75 80l36 -14q-34 -120 -131 -120zM172 -177q-16 -1 -28 13t-12 34t15 37q15 16 40 16t41 -19t16 -50q0 -98 -109 -147l-15 29q73 36 81 92l-3 2q-10 -7 -26 -7z" />
    <glyph glyph-name="Tcaron" unicode="&#x164;" horiz-adv-x="670" 
d="M178 0v52h115v553h-89q-55 -1 -74 -31t-46 -148h-38v226h578v-226h-38q-27 118 -46 148t-75 31h-88v-553h115v-52h-314zM318 747l-109 181h39l88 -101l88 101h39l-108 -181h-37z" />
    <glyph glyph-name="tcaron" unicode="&#x165;" horiz-adv-x="350" 
d="M212 -9q-114 0 -114 122v285h-91v49h91v120l78 10v-130h147v-49h-147v-283q0 -70 56 -70q47 0 75 80l36 -14q-34 -120 -131 -120zM288 751q35 0 35 -42q0 -19 -12 -63l-30 -114h-32l-3 144q-1 75 42 75z" />
    <glyph glyph-name="Umacron" unicode="&#x16a;" horiz-adv-x="734" 
d="M255 756v62h251v-62h-251zM390 43q173 0 173 200v358h-101v51h251v-51h-92v-395q-1 -98 -67 -160t-188 -62t-185 58t-63 155v404h-96v51h281v-51h-101v-382q0 -92 47 -134t141 -42z" />
    <glyph glyph-name="umacron" unicode="&#x16b;" horiz-adv-x="551" 
d="M146 546v62h251v-62h-251zM212 -8q-56 0 -88 37t-32 106v263h-74v52h151v-280q0 -69 26 -94q17 -20 61 -20t83 46q40 46 40 99v197h-77v52h155v-398h74v-52h-150v115q-72 -123 -169 -123z" />
    <glyph glyph-name="Ubreve" unicode="&#x16c;" horiz-adv-x="734" 
d="M380 744q-56 0 -91 40t-38 110h31q26 -88 98 -88t98 88h31q-2 -70 -37 -110q-36 -40 -92 -40zM390 43q173 0 173 200v358h-101v51h251v-51h-92v-395q-1 -98 -67 -160t-188 -62t-185 58t-63 155v404h-96v51h281v-51h-101v-382q0 -92 47 -134t141 -42z" />
    <glyph glyph-name="ubreve" unicode="&#x16d;" horiz-adv-x="551" 
d="M272 534q-56 0 -92 40q-35 40 -38 110h31q26 -88 98 -88t98 88h31q-2 -70 -37 -110t-91 -40zM212 -8q-56 0 -88 37t-32 106v263h-74v52h151v-280q0 -69 26 -94q17 -20 61 -20t83 46q40 46 40 99v197h-77v52h155v-398h74v-52h-150v115q-72 -123 -169 -123z" />
    <glyph glyph-name="Uring" unicode="&#x16e;" horiz-adv-x="734" 
d="M390 43q173 0 173 200v358h-101v51h251v-51h-92v-395q-1 -98 -67 -160t-188 -62t-185 58t-63 155v404h-96v51h281v-51h-101v-382q0 -92 47 -134t141 -42zM380 764q26 0 42 19t16 49t-16 50t-42 19q-26 1 -42 -19t-16 -50t16 -49t42 -19zM380 731q-49 -1 -77 29t-28 72
t28 72t77 29q49 1 77 -29t28 -72t-28 -72t-77 -29z" />
    <glyph glyph-name="uring" unicode="&#x16f;" horiz-adv-x="551" 
d="M212 -8q-56 0 -88 37t-32 106v263h-74v52h151v-280q0 -69 26 -94q17 -20 61 -20t83 46q40 46 40 99v197h-77v52h155v-398h74v-52h-150v115q-72 -123 -169 -123zM271 554q27 0 43 19t15 49q1 30 -15 50t-43 19q-27 1 -43 -19t-15 -50q-1 -30 15 -49t43 -19zM271 521
q-49 -1 -77 29t-28 72t28 72t77 29q49 1 77 -29t28 -72t-28 -72t-77 -29z" />
    <glyph glyph-name="Uhungarumlaut" unicode="&#x170;" horiz-adv-x="734" 
d="M404 933q36 0 37 -39q0 -19 -44 -73l-69 -84h-38l55 126q29 70 59 70zM548 933q36 1 37 -39q0 -20 -44 -73l-69 -84h-38l55 126q19 39 31 55t28 15zM390 43q173 0 173 200v358h-101v51h251v-51h-92v-395q-1 -98 -67 -160t-188 -62t-185 58t-63 155v404h-96v51h281v-51
h-101v-382q0 -92 47 -134t141 -42z" />
    <glyph glyph-name="uhungarumlaut" unicode="&#x171;" horiz-adv-x="551" 
d="M296 723q36 0 36 -39q0 -19 -44 -73l-69 -84h-38l55 126q30 70 60 70zM440 723q36 1 36 -39q0 -20 -44 -73l-69 -84h-38l55 126q18 39 30 55q14 16 30 15zM212 -8q-56 0 -88 37t-32 106v263h-74v52h151v-280q0 -69 26 -94q17 -20 61 -20t83 46q40 46 40 99v197h-77v52
h155v-398h74v-52h-150v115q-72 -123 -169 -123z" />
    <glyph glyph-name="Uogonek" unicode="&#x172;" horiz-adv-x="734" 
d="M368 -237q-100 0 -100 95q0 48 87 126q-117 2 -177 60t-60 153v404h-96v51h281v-51h-101v-382q0 -92 47 -134t141 -42q173 0 173 200v358h-101v51h251v-51h-92v-395q1 -88 -55 -148t-158 -71l-1 -2q-75 -77 -75 -127t54 -50q24 0 55 22l19 -28q-44 -39 -92 -39z" />
    <glyph glyph-name="uogonek" unicode="&#x173;" horiz-adv-x="551" 
d="M483 -15q-75 -77 -75 -127t54 -50q24 0 55 22l19 -28q-44 -39 -92 -39q-48 -1 -74 23t-26 60t21 67t69 73l16 14h-69v115q-72 -123 -169 -123q-56 0 -88 37t-32 106v263h-74v52h151v-280q0 -69 26 -94q17 -20 61 -20t83 46q40 46 40 99v197h-77v52h155v-398h74v-52h-33z
" />
    <glyph glyph-name="Wcircumflex" unicode="&#x174;" horiz-adv-x="984" 
d="M382 738l108 181h37l109 -181h-39l-88 102l-88 -102h-39zM652 601h-105l143 -492h5l159 492h-88v51h218v-51h-70l-204 -605h-71l-138 464l-159 -464h-70l-190 605h-85v51h277v-51h-101l150 -492h5l146 435l-16 57h-84v51h278v-51z" />
    <glyph glyph-name="wcircumflex" unicode="&#x175;" horiz-adv-x="752" 
d="M262 528l108 181h37l109 -181h-39l-88 102l-88 -102h-39zM503 398h-81l108 -318h3l109 318h-70v52h178v-52h-54l-146 -404h-64l-102 290l-118 -290h-63l-139 404h-62v52h219v-52h-76l103 -318h2l110 274l-15 44h-62v52h220v-52z" />
    <glyph glyph-name="Ycircumflex" unicode="&#x176;" horiz-adv-x="637" 
d="M209 738l108 181h37l109 -181h-39l-88 102l-88 -102h-39zM415 601v51h221v-51h-77l-199 -326v-223h101v-52h-286v52h100v222l-187 327h-82v51h272v-51h-90l150 -273l161 273h-84z" />
    <glyph glyph-name="ycircumflex" unicode="&#x177;" horiz-adv-x="489" 
d="M134 528l108 181h37l109 -181h-39l-88 102l-88 -102h-39zM70 -33q24 -1 37 -15q14 -14 14 -35t-9 -35q30 2 56 27t53 92l-159 397h-62v52h224v-52h-78l116 -309l120 309h-69v52h180v-52h-55l-155 -380q-73 -181 -175 -181q-46 -1 -70 19t-24 48t16 46t40 17z" />
    <glyph glyph-name="Ydieresis" unicode="&#x178;" horiz-adv-x="637" 
d="M249 760q-23 0 -37 16t-14 38q0 23 14 39t37 16q22 0 37 -16t15 -39q0 -22 -15 -38t-37 -16zM423 760q-22 0 -37 16t-15 38q0 23 15 39t37 16q23 0 37 -16t14 -39q0 -22 -14 -38t-37 -16zM415 601v51h221v-51h-77l-199 -326v-223h101v-52h-286v52h100v222l-187 327h-82
v51h272v-51h-90l150 -273l161 273h-84z" />
    <glyph glyph-name="Zacute" unicode="&#x179;" horiz-adv-x="609" 
d="M39 0v37l417 564h-250q-32 0 -47 -10q-27 -18 -60 -162h-40v223h506v-36l-414 -564h270q31 0 52 16t54 163h39v-231h-527zM392 933q38 1 38 -39q0 -18 -43 -74l-65 -83h-38l50 126q26 70 58 70z" />
    <glyph glyph-name="zacute" unicode="&#x17a;" horiz-adv-x="457" 
d="M35 0v43l293 363h-159q-37 0 -51 -20t-31 -93h-37v157h374v-43l-295 -363h183q38 0 50 22t26 102h38v-168h-391zM324 723q38 1 38 -39q0 -18 -43 -74l-65 -83h-38l50 126q26 70 58 70z" />
    <glyph glyph-name="Zdotaccent" unicode="&#x17b;" horiz-adv-x="609" 
d="M308 741q-22 -1 -38 15t-15 40q-1 24 15 39q16 16 38 16q22 1 38 -15t16 -40t-16 -39q-16 -16 -38 -16zM39 0v37l417 564h-250q-32 0 -47 -10q-27 -18 -60 -162h-40v223h506v-36l-414 -564h270q31 0 52 16t54 163h39v-231h-527z" />
    <glyph glyph-name="zdotaccent" unicode="&#x17c;" horiz-adv-x="457" 
d="M241 531q-23 -1 -38 15t-15 40t16 39q16 16 38 16q22 1 38 -15t15 -40q1 -24 -15 -39q-16 -16 -39 -16zM35 0v43l293 363h-159q-37 0 -51 -20t-31 -93h-37v157h374v-43l-295 -363h183q38 0 50 22t26 102h38v-168h-391z" />
    <glyph glyph-name="Zcaron" unicode="&#x17d;" horiz-adv-x="609" 
d="M39 0v37l417 564h-250q-32 0 -47 -10q-27 -18 -60 -162h-40v223h506v-36l-414 -564h270q31 0 52 16t54 163h39v-231h-527zM292 747l-109 181h39l88 -101l88 101h39l-108 -181h-37z" />
    <glyph glyph-name="zcaron" unicode="&#x17e;" horiz-adv-x="457" 
d="M35 0v43l293 363h-159q-37 0 -51 -20t-31 -93h-37v157h374v-43l-295 -363h183q38 0 50 22t26 102h38v-168h-391zM225 537l-109 181h39l88 -101l88 101h39l-108 -181h-37z" />
    <glyph glyph-name="Aringacute" unicode="&#x1fa;" horiz-adv-x="672" 
d="M301 652q-68 20 -68 100q-1 38 27 66q28 30 77 30t77 -30t27 -71q0 -75 -66 -94l221 -601h84v-52h-280v52h103l-65 183h-241l-70 -183h88v-52h-219v52h70zM421 282l-98 277h-3l-106 -277h207zM337 679q27 -1 43 19t16 50t-16 49t-43 19t-43 -19t-16 -49t16 -50t43 -19z
M415 1085q38 1 38 -39q0 -18 -43 -74l-65 -83h-38l50 126q26 70 58 70z" />
    <glyph glyph-name="aringacute" unicode="&#x1fb;" horiz-adv-x="483" 
d="M242 554q26 0 42 19t16 49t-16 50t-42 19q-26 1 -42 -19t-16 -50t16 -49t42 -19zM242 521q-49 -1 -77 29t-28 72t28 72t77 29q49 1 77 -29t28 -72t-28 -72t-77 -29zM321 961q38 1 38 -39q0 -18 -43 -74l-65 -83h-38l50 126q26 70 58 70zM209 46q41 0 75 29t35 67v89
q-11 -4 -69 -13q-58 -10 -88 -30t-31 -64q0 -78 78 -78zM325 78q-51 -85 -157 -85q-54 0 -88 32q-34 33 -34 83t28 78t66 42q38 12 96 22q60 10 72 14t11 17v44q0 48 -23 69q-24 21 -74 21t-82 -26q27 -14 27 -41q0 -56 -52 -56q-25 0 -39 15t-14 39q0 48 52 80t125 31
q158 0 158 -135v-235q0 -40 30 -40q23 0 40 40l30 -17q-35 -75 -93 -75q-33 1 -54 21t-22 62h-3z" />
    <glyph glyph-name="AEacute" unicode="&#x1fc;" horiz-adv-x="958" 
d="M212 52v-52h-236v52h80l318 549h-103v51h620v-204h-40q-21 100 -37 126t-61 27h-225v-243h99q44 0 57 16t24 84h41v-249h-41q-10 70 -23 87t-58 17h-99v-261h223q53 0 70 29t39 143h40v-224h-567v52h110v193h-213l-110 -193h92zM443 292v309h-7l-178 -309h185zM592 933
q38 1 38 -39q0 -18 -43 -74l-65 -83h-38l50 126q26 70 58 70z" />
    <glyph glyph-name="aeacute" unicode="&#x1fd;" horiz-adv-x="744" 
d="M481 723q38 1 38 -39q0 -18 -43 -74l-65 -83h-38l50 126q26 70 58 70zM209 46q41 0 75 29t35 67v89q-11 -4 -69 -13q-58 -10 -88 -30t-31 -64q0 -78 78 -78zM518 415q-50 -1 -82 -39t-38 -112h229q-11 151 -109 151zM167 348q0 -56 -52 -56q-25 0 -39 15t-14 39
q0 48 52 80t125 31q107 0 138 -66q57 67 147 67t138 -70t46 -167h-311q1 -85 38 -131t101 -46q92 0 127 88h42q-41 -141 -186 -141q-124 0 -175 106q-58 -104 -176 -104q-54 0 -88 32q-34 33 -34 83t28 78t66 42q38 12 96 22q60 10 72 14t11 17v44q0 48 -23 69
q-24 21 -74 21t-82 -26q27 -14 27 -41z" />
    <glyph glyph-name="Oslashacute" unicode="&#x1fe;" 
d="M438 933q38 1 38 -39q0 -18 -43 -74l-65 -83h-38l50 126q26 70 58 70zM143 334q0 -126 44 -200l308 422q-55 58 -147 58t-148 -78q-56 -76 -57 -202zM363 37q92 -1 149 77t57 202t-44 200l-309 -421q55 -58 147 -58zM47 322q1 148 91 247q90 98 204 98t195 -61l56 79h64
l-84 -111q91 -98 91 -246t-90 -246t-205 -98t-195 61l-56 -79h-63l84 111q-92 97 -92 245z" />
    <glyph glyph-name="oslashacute" unicode="&#x1ff;" horiz-adv-x="512" 
d="M338 723q38 1 38 -39q0 -18 -43 -74l-65 -83h-38l50 126q26 70 58 70zM261 35q57 0 92 48q35 49 35 129t-22 126l-198 -263q36 -40 93 -40zM123 238q0 -80 21 -127l200 262q-34 41 -92 41t-94 -48t-35 -128zM39 221q0 105 62 171q63 66 145 66t136 -37l41 55h52l-63 -81
q61 -67 61 -169t-62 -168q-63 -66 -145 -67q-82 0 -136 37l-41 -55h-52l62 81q-60 63 -60 167z" />
    <glyph glyph-name="Scommaaccent" unicode="&#x218;" horiz-adv-x="572" 
d="M271 667q97 0 160 -72l20 69h49v-215h-45q-69 171 -196 171q-51 0 -84 -30t-33 -71t10 -61q19 -38 57 -55q39 -17 90 -30t71 -19t50 -17q110 -41 110 -165q0 -76 -60 -132t-164 -56t-180 81l-22 -78h-49v227h45q46 -98 98 -140t118 -42t100 32q36 32 36 72q0 42 -10 62
q-18 38 -60 57t-94 32q-53 14 -77 22q-69 23 -108 62t-39 114t55 129t152 53zM275 -177q-15 -1 -27 13t-13 34q0 20 15 37q15 16 40 16t41 -19t16 -50q0 -98 -109 -147l-15 29q73 36 81 92l-3 2q-11 -7 -26 -7z" />
    <glyph glyph-name="scommaaccent" unicode="&#x219;" horiz-adv-x="433" 
d="M45 -9v170h46q18 -61 57 -95t86 -34q94 0 94 70q0 33 -26 52t-103 40q-76 21 -111 52t-35 83q1 53 43 91t116 38t109 -54l11 54h44v-154h-44q-25 59 -53 86q-29 27 -69 27q-40 1 -64 -17t-23 -48q-1 -30 27 -50t102 -40t109 -50t35 -84t-44 -96t-122 -41q-80 0 -130 63
l-11 -63h-44zM206 -177q-16 -1 -28 13t-12 34t15 37q15 16 40 16t41 -19t16 -50q0 -98 -109 -147l-15 29q73 36 81 92l-3 2q-11 -7 -26 -7z" />
    <glyph glyph-name="schwa" unicode="&#x259;" horiz-adv-x="476" 
d="M228 42q50 0 83 39t40 112h-234q11 -151 111 -151zM226 466q97 0 154 -64t57 -165q1 -102 -61 -170t-154 -68t-139 70q-48 70 -46 167h316q-3 86 -41 132t-103 45q-93 0 -128 -88h-42q41 141 187 141z" />
    <glyph glyph-name="circumflex" unicode="&#x2c6;" horiz-adv-x="299" 
d="M23 528l108 181h37l109 -181h-39l-88 102l-88 -102h-39z" />
    <glyph glyph-name="caron" unicode="&#x2c7;" horiz-adv-x="299" 
d="M132 537l-109 181h39l88 -101l88 101h39l-108 -181h-37z" />
    <glyph glyph-name="breve" unicode="&#x2d8;" horiz-adv-x="336" 
d="M168 534q-56 0 -91 40t-38 110h31q26 -88 98 -88t98 88h31q-2 -70 -37 -110q-36 -40 -92 -40z" />
    <glyph glyph-name="dotaccent" unicode="&#x2d9;" horiz-adv-x="192" 
d="M95 531q-23 -1 -38 15t-15 40t16 39q16 16 38 16q22 1 38 -15t15 -40q1 -24 -15 -39q-16 -16 -39 -16z" />
    <glyph glyph-name="ring" unicode="&#x2da;" horiz-adv-x="258" 
d="M129 554q27 0 43 19t15 49q1 30 -15 50t-43 19q-27 1 -43 -19t-15 -50q-1 -30 15 -49t43 -19zM129 521q-49 -1 -77 29t-28 72t28 72t77 29q49 1 77 -29t28 -72t-28 -72t-77 -29z" />
    <glyph glyph-name="ogonek" unicode="&#x2db;" horiz-adv-x="269" 
d="M149 -15q-75 -77 -75 -127t54 -50q24 0 55 22l19 -28q-44 -39 -92 -39q-48 -1 -74 23t-26 60t21 67t69 73l32 28h46z" />
    <glyph glyph-name="tilde" unicode="&#x2dc;" horiz-adv-x="331" 
d="M312 661q-18 -123 -84 -123q-34 0 -75 29q-42 29 -56 29q-30 0 -41 -63h-37q15 122 83 122q34 -1 76 -29t56 -28q30 0 41 63h37z" />
    <glyph glyph-name="hungarumlaut" unicode="&#x2dd;" horiz-adv-x="288" 
d="M110 723q36 0 36 -39q0 -19 -44 -73l-69 -84h-38l55 126q30 70 60 70zM254 723q36 1 36 -39q0 -20 -44 -73l-69 -84h-38l55 126q18 39 30 55q14 16 30 15z" />
    <glyph glyph-name="commaaccent" unicode="&#x326;" horiz-adv-x="225" 
d="M88 -177q-16 -1 -28 13t-12 34t15 37q15 16 40 16t41 -19t16 -50q0 -98 -109 -147l-15 29q73 36 81 92l-3 2q-10 -7 -26 -7z" />
    <glyph glyph-name="Wgrave" unicode="&#x1e80;" horiz-adv-x="984" 
d="M396 894q0 40 38 39q31 0 58 -70l50 -126h-38l-65 83q-43 56 -43 74zM652 601h-105l143 -492h5l159 492h-88v51h218v-51h-70l-204 -605h-71l-138 464l-159 -464h-70l-190 605h-85v51h277v-51h-101l150 -492h5l146 435l-16 57h-84v51h278v-51z" />
    <glyph glyph-name="wgrave" unicode="&#x1e81;" horiz-adv-x="752" 
d="M276 684q0 40 38 39q31 0 58 -70l50 -126h-38l-65 83q-43 56 -43 74zM503 398h-81l108 -318h3l109 318h-70v52h178v-52h-54l-146 -404h-64l-102 290l-118 -290h-63l-139 404h-62v52h219v-52h-76l103 -318h2l110 274l-15 44h-62v52h220v-52z" />
    <glyph glyph-name="Wacute" unicode="&#x1e82;" horiz-adv-x="984" 
d="M592 933q38 1 38 -39q0 -18 -43 -74l-65 -83h-38l50 126q26 70 58 70zM652 601h-105l143 -492h5l159 492h-88v51h218v-51h-70l-204 -605h-71l-138 464l-159 -464h-70l-190 605h-85v51h277v-51h-101l150 -492h5l146 435l-16 57h-84v51h278v-51z" />
    <glyph glyph-name="wacute" unicode="&#x1e83;" horiz-adv-x="752" 
d="M472 723q38 1 38 -39q0 -18 -43 -74l-65 -83h-38l50 126q26 70 58 70zM503 398h-81l108 -318h3l109 318h-70v52h178v-52h-54l-146 -404h-64l-102 290l-118 -290h-63l-139 404h-62v52h219v-52h-76l103 -318h2l110 274l-15 44h-62v52h220v-52z" />
    <glyph glyph-name="Wdieresis" unicode="&#x1e84;" horiz-adv-x="984" 
d="M596 760q-22 0 -37 16t-15 38q0 23 15 39t37 16t36 -16t15 -39q-1 -22 -15 -38t-36 -16zM422 760q-22 0 -36 16t-15 38q1 23 15 39t36 16t37 -16t15 -39q0 -22 -15 -38t-37 -16zM652 601h-105l143 -492h5l159 492h-88v51h218v-51h-70l-204 -605h-71l-138 464l-159 -464
h-70l-190 605h-85v51h277v-51h-101l150 -492h5l146 435l-16 57h-84v51h278v-51z" />
    <glyph glyph-name="wdieresis" unicode="&#x1e85;" horiz-adv-x="752" 
d="M476 550q-22 0 -37 16t-15 38q0 23 15 39t37 16t36 -16t15 -39q-1 -22 -15 -38t-36 -16zM302 550q-22 0 -36 16t-15 38q1 23 15 39t36 16t37 -16t15 -39q0 -22 -15 -38t-37 -16zM503 398h-81l108 -318h3l109 318h-70v52h178v-52h-54l-146 -404h-64l-102 290l-118 -290
h-63l-139 404h-62v52h219v-52h-76l103 -318h2l110 274l-15 44h-62v52h220v-52z" />
    <glyph glyph-name="Ygrave" unicode="&#x1ef2;" horiz-adv-x="637" 
d="M224 894q0 40 38 39q31 0 58 -70l50 -126h-38l-65 83q-43 56 -43 74zM415 601v51h221v-51h-77l-199 -326v-223h101v-52h-286v52h100v222l-187 327h-82v51h272v-51h-90l150 -273l161 273h-84z" />
    <glyph glyph-name="ygrave" unicode="&#x1ef3;" horiz-adv-x="489" 
d="M149 684q-1 40 37 39q31 0 59 -70l50 -126h-38l-65 83q-43 56 -43 74zM70 -33q24 -1 37 -15q14 -14 14 -35t-9 -35q30 2 56 27t53 92l-159 397h-62v52h224v-52h-78l116 -309l120 309h-69v52h180v-52h-55l-155 -380q-73 -181 -175 -181q-46 -1 -70 19t-24 48t16 46t40 17z
" />
    <glyph glyph-name="enspace" unicode="&#x2002;" horiz-adv-x="500" 
 />
    <glyph glyph-name="emspace" unicode="&#x2003;" horiz-adv-x="1000" 
 />
    <glyph glyph-name="threeperemspace" unicode="&#x2004;" horiz-adv-x="333" 
 />
    <glyph glyph-name="fourperemspace" unicode="&#x2005;" horiz-adv-x="250" 
 />
    <glyph glyph-name="thinspace" unicode="&#x2009;" horiz-adv-x="133" 
 />
    <glyph glyph-name="hairspace" unicode="&#x200a;" horiz-adv-x="75" 
 />
    <glyph glyph-name="endash" unicode="&#x2013;" horiz-adv-x="540" 
d="M55 211v57h430v-57h-430z" />
    <glyph glyph-name="emdash" unicode="&#x2014;" horiz-adv-x="790" 
d="M55 211v57h680v-57h-680z" />
    <glyph glyph-name="quoteleft" unicode="&#x2018;" horiz-adv-x="214" 
d="M108 433q-26 1 -43 21t-17 62q0 94 135 155l16 -30q-95 -45 -106 -107l4 -3q10 7 26 7t29 -14t13 -36q1 -22 -15 -38t-42 -17z" />
    <glyph glyph-name="quoteright" unicode="&#x2019;" horiz-adv-x="214" 
d="M92 563q-16 0 -28 14q-13 13 -13 35q-1 22 15 38t42 17q26 0 43 -20t17 -53q0 -104 -136 -165l-15 30q95 45 106 108l-4 2q-11 -6 -27 -6z" />
    <glyph glyph-name="quotesinglbase" unicode="&#x201a;" horiz-adv-x="214" 
d="M92 -6q-16 0 -28 14q-13 14 -13 36q-1 22 15 38t42 16t43 -20t17 -53q0 -104 -136 -165l-15 30q95 45 106 108l-4 2q-11 -6 -27 -6z" />
    <glyph glyph-name="quotedblleft" unicode="&#x201c;" horiz-adv-x="389" 
d="M108 433q-26 1 -43 21t-17 62q0 94 135 155l16 -30q-96 -45 -107 -107l4 -3q10 7 26 7t29 -14t13 -36t-15 -38t-41 -17zM284 433q-26 1 -43 21t-17 52q0 105 136 165l15 -30q-95 -45 -106 -107l4 -3q10 7 26 7t29 -14t13 -36q1 -22 -15 -38t-42 -17z" />
    <glyph glyph-name="quotedblright" unicode="&#x201d;" horiz-adv-x="389" 
d="M92 563q-16 0 -28 14q-13 13 -13 35q-1 22 15 38t42 17q26 0 43 -20t17 -53q0 -104 -136 -165l-15 30q95 45 106 108l-4 2q-11 -6 -27 -6zM269 563q-15 0 -29 14q-14 13 -13 35q-1 22 15 38t42 17q26 0 43 -20t17 -63q0 -95 -135 -155l-16 30q96 45 107 108l-4 2
q-12 -6 -27 -6z" />
    <glyph glyph-name="quotedblbase" unicode="&#x201e;" horiz-adv-x="389" 
d="M92 -6q-16 0 -28 14q-13 14 -13 36q-1 22 15 38t42 16t43 -20t17 -53q0 -104 -136 -165l-15 30q95 45 106 108l-4 2q-11 -6 -27 -6zM269 -6q-15 0 -29 14t-13 36q-1 22 15 38t42 16t43 -20t17 -63q0 -95 -135 -155l-16 30q96 45 107 108l-4 2q-12 -6 -27 -6z" />
    <glyph glyph-name="dagger" unicode="&#x2020;" horiz-adv-x="518" 
d="M152 454q-22 0 -25 -1q7 -11 7 -29t-12 -32t-32 -13t-34 13t-14 36t21 44t63 20t116 -30l-28 178l8 21q16 39 37 39t37 -39l8 -21l-29 -189q69 -29 91 -29t25 1q-7 11 -7 29t12 32t32 13t34 -13t14 -36t-21 -44t-63 -20t-115 30l17 -269v-153q0 -46 -15 -70
q-15 -23 -20 -23t-21 23t-15 70v153l19 280q-68 29 -90 29z" />
    <glyph glyph-name="daggerdbl" unicode="&#x2021;" horiz-adv-x="518" 
d="M259 700q21 0 37 -39l8 -21l-29 -189q69 -29 91 -29t25 1q-7 11 -7 29t12 32t32 13t34 -13t14 -36t-21 -44t-63 -20t-115 30l17 -125l-17 -116q67 -29 89 -29t25 1q-7 14 -7 31q0 16 12 30t32 14t34 -13t14 -37t-21 -43q-21 -20 -63 -20t-116 30l28 -178l-8 -22
q-16 -38 -37 -38t-37 38l-8 22l29 188q-69 30 -91 30t-25 -1q7 -14 7 -31t-12 -31t-32 -13q-20 0 -34 13q-14 12 -14 36t21 44t64 20t114 -29l-17 125l17 116q-71 28 -91 28t-23 -1q7 -11 7 -29t-12 -32t-32 -13t-34 13t-14 36t21 44t63 20t116 -30l-28 178l8 21
q16 39 37 39z" />
    <glyph glyph-name="bullet" unicode="&#x2022;" horiz-adv-x="460" 
d="M230 193q-50 -1 -86 35t-35 87q-1 51 35 87t86 36t86 -36t35 -87q1 -51 -35 -87t-86 -35z" />
    <glyph glyph-name="ellipsis" unicode="&#x2026;" horiz-adv-x="633" 
d="M107 -15q-25 1 -41 17t-16 40t16 40t41 16t41 -16t16 -40t-16 -40t-41 -17zM316 -15q-24 1 -40 17q-17 16 -17 40t17 40q16 16 40 16t40 -16t17 -40q-1 -24 -17 -40t-40 -17zM526 -15q-24 1 -40 17t-17 40q1 24 17 40t40 16t40 -16t17 -40q-1 -24 -17 -40t-40 -17z" />
    <glyph glyph-name="guilsinglleft" unicode="&#x2039;" horiz-adv-x="298" 
d="M43 224q0 13 27 40l150 152l29 -20l-125 -171l125 -173l-29 -20l-150 152q-27 27 -27 40z" />
    <glyph glyph-name="guilsinglright" unicode="&#x203a;" horiz-adv-x="298" 
d="M255 224q0 -13 -27 -40l-150 -152l-29 20l125 171l-125 173l29 20l150 -152q27 -27 27 -40z" />
    <glyph glyph-name="Euro" unicode="&#x20ac;" horiz-adv-x="643" 
d="M538 438q-60 0 -60 63q0 31 30 51q-28 41 -98 41t-122 -46q-54 -46 -71 -149h198v-47h-204q-1 -15 -1 -43t1 -41h204v-47h-197q16 -82 64 -128t114 -45q68 0 110 42t52 113h47q-5 -90 -65 -154t-160 -64t-166 66t-85 170h-91v47h84q-1 12 -1 33t2 51h-85v47h94
q25 108 100 176t165 69q91 0 147 -41t56 -95q0 -27 -17 -48t-45 -21z" />
    <glyph glyph-name="published" unicode="&#x2117;" horiz-adv-x="787" 
d="M362 328h49q90 0 90 81q0 74 -89 74h-50v-155zM247 151v32h60v299h-60v33h168q77 1 111 -29t35 -78q-1 -48 -37 -79q-36 -32 -107 -32h-55v-114h66v-32h-181zM394 2q136 0 228 95t92 233t-93 232t-227 94t-228 -94q-93 -94 -93 -232t93 -233t228 -95zM394 -32
q-152 0 -256 104t-104 258q0 152 104 256t256 104t255 -104q104 -104 104 -256t-104 -258q-103 -104 -255 -104z" />
    <glyph glyph-name="servicemark" unicode="&#x2120;" horiz-adv-x="777" 
d="M322 358v29h44v237h-44v29l127 -1l78 -226h4l81 226h123v-28h-45v-237h45v-29h-131v29h35v225h-9l-94 -254h-34l-92 254h-10v-225h38v-29h-116zM151 633q-53 0 -53 -47q0 -33 36 -45l52 -13q38 -10 64 -27t26 -57t-28 -66t-76 -26t-82 36l-10 -35h-29v104h27
q40 -77 98 -77t58 50q0 32 -37 44q-13 4 -43 12t-48 16t-35 26q-16 19 -16 51q1 32 27 57t70 25t72 -33l10 31h27v-99h-26q-31 73 -84 73z" />
    <glyph glyph-name="trademark" unicode="&#x2122;" horiz-adv-x="819" 
d="M101 358v29h57v238h-33q-26 0 -35 -14t-22 -68h-23v109h277v-109h-23q-11 53 -21 67t-35 15h-33v-238h56v-29h-165zM365 358v29h44v237h-44v28h127l78 -226h3l82 226h123v-28h-45v-237h45v-29h-132v29h36v225h-9l-94 -254h-35l-91 254h-10v-225h37v-29h-115z" />
    <glyph glyph-name="minus" unicode="&#x2212;" horiz-adv-x="522" 
d="M446 251h-370v54h370v-54z" />
    <glyph glyph-name="registered.alt" horiz-adv-x="787" 
d="M339 343h62q82 0 82 75q0 64 -75 64h-69v-139zM339 313v-130h61v-32h-176v32h61v299h-61v33h185q68 -1 101 -27t33 -63q0 -79 -92 -95v-2q71 -16 75 -80l4 -42q2 -25 18 -25t27 25l21 -9q-18 -53 -64 -53q-60 0 -61 68l-1 42q-1 32 -15 46t-52 13h-64zM394 2
q136 0 228 95t92 233t-93 232t-227 94t-228 -94q-93 -94 -93 -232t93 -233t228 -95zM394 -32q-152 0 -256 104t-104 258q0 152 104 256t256 104t255 -104q104 -104 104 -256t-104 -258q-103 -104 -255 -104z" />
    <glyph glyph-name="zero.osf" horiz-adv-x="558" 
d="M282 33q70 0 108 65q36 65 36 173q0 109 -40 175t-110 66t-107 -66t-37 -172q0 -108 40 -174t110 -67zM278 -16q-104 0 -170 84t-66 203q0 120 67 205t172 85q105 1 171 -83t65 -204q0 -120 -67 -204q-67 -86 -172 -86z" />
    <glyph glyph-name="one.osf" horiz-adv-x="438" 
d="M56 0v52h140v386q-31 -16 -75 -16t-68 8v42q59 -2 105 20t67 61h53v-501h135v-52h-357z" />
    <glyph glyph-name="two.osf" horiz-adv-x="530" 
d="M371 404q-1 109 -131 109q-68 0 -105 -57q46 -14 46 -57q0 -25 -16 -41t-42 -17t-43 19t-17 49q-1 58 57 105t146 47t140 -46q51 -46 51 -110q1 -64 -41 -106t-124 -72q-149 -55 -179 -136l2 -3q35 22 77 22t94 -24t79 -25q28 0 47 26t36 93l39 -3q-9 -99 -47 -146
t-85 -47q-48 0 -105 40q-56 40 -74 41q-18 0 -36 -5q8 -13 8 -31q0 -17 -12 -31t-36 -14q-52 0 -52 80q0 42 48 94t132 92t114 72q29 32 29 82z" />
    <glyph glyph-name="three.osf" horiz-adv-x="511" 
d="M361 400q0 113 -128 113q-66 0 -104 -49q43 -16 43 -48q0 -66 -56 -66q-26 0 -44 18t-17 48q-1 57 55 101t144 44t142 -46q54 -45 53 -107q0 -125 -159 -159v-2q170 -21 170 -157q0 -70 -60 -122q-60 -54 -152 -54t-151 40t-59 98q0 28 17 47t43 19t42 -17t16 -47
t-31 -50q41 -42 109 -42t103 36t35 93q0 132 -166 132h-23v49h18q160 0 160 128z" />
    <glyph glyph-name="four.osf" horiz-adv-x="553" 
d="M401 -25h84v-50h-249v50h85v136h-293v53l294 392h79v-392h131v-53h-131v-136zM322 164v303h-3l-226 -303h229z" />
    <glyph glyph-name="five.osf" horiz-adv-x="505" 
d="M108 130q54 0 55 -64q0 -32 -41 -51q40 -53 112 -53t108 44t36 119q0 147 -122 147q-69 0 -131 -58l-40 12l22 320l12 10q88 -36 170 -36t144 35l13 -28q-59 -85 -163 -85q-61 0 -128 26l-13 -190q56 43 138 43q82 1 132 -53q52 -54 52 -138t-58 -150t-149 -66t-151 42
t-60 102q0 30 18 51t44 21z" />
    <glyph glyph-name="six.osf" horiz-adv-x="525" 
d="M139 188q0 -64 38 -110t97 -45q58 -1 90 43t32 111t-32 108t-90 41q-59 0 -97 -42t-38 -106zM409 450q-56 0 -56 62q0 32 41 45q-29 26 -78 26q-77 -1 -129 -79t-54 -209q61 91 155 91t144 -53t50 -138t-56 -148t-158 -63t-160 80q-60 80 -60 220t77 243q77 104 192 104
q71 -1 112 -33t41 -70q0 -78 -61 -78z" />
    <glyph glyph-name="seven.osf" horiz-adv-x="497" 
d="M159 -38q1 76 55 200t127 202t81 97l-3 3q-53 -30 -93 -30t-84 21t-72 21q-58 0 -72 -152h-49v226h53l4 -81h3q28 86 93 86q32 -1 59 -21t51 -40t47 -20q22 0 42 10q-12 13 -12 33t13 34q12 14 34 14q22 1 36 -15t13 -42q0 -26 -17 -52q-16 -26 -74 -92
q-117 -134 -138 -390q-4 -60 -49 -60q-21 0 -35 12t-13 36z" />
    <glyph glyph-name="eight.osf" horiz-adv-x="524" 
d="M144 472q0 -48 36 -78t121 -52q89 40 89 128q0 48 -34 80t-90 33t-90 -31q-32 -32 -32 -80zM122 159q0 -55 39 -91t102 -36t101 35t38 83t-40 78q-40 29 -92 44t-57 17q-91 -39 -91 -130zM66 456q0 73 56 124t144 51t140 -46t53 -109q0 -105 -110 -150q131 -49 131 -153
q0 -79 -63 -134t-159 -55t-154 48t-58 118q0 108 121 157q-101 46 -101 149z" />
    <glyph glyph-name="nine.osf" horiz-adv-x="525" 
d="M386 356q0 68 -34 112t-93 44t-95 -46t-35 -114q-1 -66 31 -108t92 -42t97 43t37 111zM112 104q56 0 56 -62q0 -32 -39 -48q32 -32 88 -32q82 0 126 74t49 208q-53 -91 -149 -91t-148 53t-52 139q1 86 61 151t161 65q101 -1 157 -81t55 -220q1 -140 -71 -244
q-72 -102 -189 -102q-76 0 -121 34t-45 74q-1 40 17 61t44 21z" />
    <glyph glyph-name="dollar.osf" horiz-adv-x="521" 
d="M138 419q0 -33 23 -53t82 -37v181q-51 -6 -78 -32t-27 -59zM402 130q0 35 -25 57t-87 41v-191q52 4 82 31t30 62zM290 -85h-47v79q-86 4 -143 42t-57 88q0 26 17 45q16 19 42 19t41 -16t15 -46q0 -28 -31 -47q34 -36 116 -42v204q-91 27 -135 59t-43 94q-1 62 47 106
t131 53v69h47v-68q75 -2 127 -40t52 -74q1 -36 -15 -54q-16 -16 -39 -16t-38 14t-15 42t31 44q-33 37 -103 41v-195q96 -28 138 -64t43 -95q0 -61 -47 -109t-134 -54v-79z" />
    <glyph glyph-name="sterling.osf" horiz-adv-x="575" 
d="M78 59q0 -30 31 -30q40 0 66 67q-19 6 -43 6t-39 -12t-15 -31zM537 166q-9 -181 -110 -181q-47 0 -79 16q-32 17 -70 43t-59 37q-41 -97 -116 -97q-33 0 -55 18t-22 54q0 35 37 65t105 30q18 0 36 -3q6 22 6 44t-16 51h-142v50h110q-25 41 -25 85q0 80 60 132
q59 52 145 51q86 1 133 -37t47 -77t-18 -59t-42 -19q-26 0 -43 16q-17 15 -17 45t33 46q-22 37 -85 37q-62 -1 -98 -29t-36 -68t20 -77t24 -46h175v-50h-161q1 -4 1 -11q0 -48 -28 -94q35 -11 93 -43t86 -32q54 0 71 106z" />
    <glyph glyph-name="Euro.osf" horiz-adv-x="635" 
d="M378 -16q-100 0 -165 56t-86 146h-91v47h84q-1 9 -1 29t3 43h-86v47h96q27 92 101 150t163 59q90 0 146 -40t56 -92q0 -28 -16 -48t-45 -20t-45 16t-16 46t30 47q-30 41 -98 41t-121 -38t-71 -121h195v-47h-202q-1 -10 -1 -35t2 -37h201v-47h-193q37 -139 174 -139
q68 1 110 41t53 109h48q-5 -87 -65 -150t-160 -63z" />
    <glyph glyph-name="yen.osf" horiz-adv-x="647" 
d="M98 307h125l-116 188h-79v50h259v-50h-87l138 -228l147 228h-80v50h215v-50h-73l-124 -188h122v-47h-153l-30 -46v-25h183v-47h-183v-90h115v-52h-311v52h117v90h-185v47h185v22l-31 49h-154v47z" />
    <glyph glyph-name="hfjslug" horiz-adv-x="694" 
d="M426 317q16 0 16 -17t-16 -17t-16 17t16 17zM487 299h-11v17h11q10 0 10 -8t-10 -9zM320 402q-14 0 -14 22t16 38l20 -39q-8 -21 -22 -21zM315 516q-1 14 13 14t14 -17t-15 -34q-12 23 -12 37zM241 323l14 -47h8l11 34h1l11 -34h8l14 47h-8l-10 -35h-1l-11 35h-7l-11 -35
h-1l-10 35h-8zM132 323v-46h8v32l25 -32h7v46h-8v-32l-25 32h-7zM193 323v-46h34v7h-26v13h23v7h-23v12h26v7h-34zM366 277h8v17l18 29h-9l-13 -22l-13 22h-9l18 -29v-17zM426 276q10 0 17 7t7 17t-7 16q-7 8 -17 8t-17 -8t-7 -16q0 -10 7 -17t17 -7zM505 308q0 15 -17 15
h-20v-46h8v15h12l10 -15h9l-12 17q10 4 10 14zM523 323v-46h8v12l8 8l15 -20h10l-20 26l18 20h-10l-20 -24h-1v24h-8zM292 421q0 -33 29 -33q19 0 29 24h1l12 -24l12 6l-17 32q6 14 13 39l-13 3q-4 -18 -8 -30h-1l-16 31q23 21 23 42q0 31 -27 31q-12 0 -20 -9t-8 -22
t14 -39q-23 -18 -23 -51zM481 390q31 0 31 36v137h-16v-137q0 -22 -16 -22q-8 0 -20 5v-15q10 -4 21 -4zM184 563v-172h15v79h47v-79h15v172h-15v-79h-47v79h-15zM400 563v-172h15v78h38v14h-38v66h43v14h-58zM644 -200h-208l-8 14h-163l-8 -14h-207v303q14 -1 23 9t9 23
t-10 23t-22 9v554h100l30 79h334l29 -79h101v-921z" />
    <glyph glyph-name="i.dot" horiz-adv-x="300" 
d="M36 0v52h85v346h-85v52h162v-398h85v-52h-247zM154 552q-24 0 -41 15q-16 15 -16 41t16 42q17 16 41 16t40 -16t15 -41q1 -25 -15 -41t-40 -16z" />
    <glyph glyph-name="caron.alt" horiz-adv-x="238" 
d="M116 751q35 0 35 -42q0 -19 -12 -63l-30 -114h-32l-3 144q-1 75 42 75z" />
    </font>
</defs>
</svg>
