<?xml version="1.0" encoding="utf-8"?>
<!-- Generator: Adobe Illustrator 16.2.1, SVG Export Plug-In . SVG Version: 6.00 Build 0)  -->
<!DOCTYPE svg PUBLIC "-//W3C//DTD SVG 1.1//EN" "http://www.w3.org/Graphics/SVG/1.1/DTD/svg11.dtd">
<svg version="1.1" id="Layer_1" xmlns="http://www.w3.org/2000/svg" xmlns:xlink="http://www.w3.org/1999/xlink" x="0px" y="0px"
	 width="500px" height="145px" viewBox="0 0 500 145" enable-background="new 0 0 500 145" xml:space="preserve">
<path opacity="0.15" fill="#231F20" enable-background="new    " d="M211.424,38.029c-1.266-1.331-1.266-3.492,0-4.817l0.027-0.055
	c21.37-21.2,55.867-21.15,77.172,0.153c0.232,0.232,0.447,0.474,0.674,0.709c-21.354-20.59-55.309-20.416-76.439,0.544l-0.027,0.056
	c-1.044,1.093-1.212,2.75-0.533,4.046C211.983,38.504,211.683,38.302,211.424,38.029z M240.852,49.161
	c-1.738,0-3.146,1.408-3.146,3.146v58.361c0.465,0.146,0.936,0.284,1.408,0.415V53.715c0-1.737,1.408-3.146,3.146-3.146
	c0.504,0,0.974,0.129,1.396,0.34C243.141,49.877,242.085,49.161,240.852,49.161z M285.301,107.298
	c18.748-18.741,18.748-49.125,0-67.862c-0.238-0.239-0.486-0.461-0.729-0.694c18.054,18.788,17.836,48.644-0.68,67.15
	c-18.507,18.506-48.364,18.725-67.144,0.682c0.231,0.24,0.453,0.486,0.689,0.724C236.17,126.04,266.559,126.04,285.301,107.298z
	 M212.008,111.287c-10.196-10.572-15.312-24.232-15.312-37.908c0-6.082,1.633-11.02,4.905-14.821
	c3.294-3.795,7.584-5.681,12.874-5.681c2.667,0,5.258,0.621,7.754,1.886c1.265,0.631,2.376,1.359,3.337,2.182
	c-1.223-1.421-2.803-2.619-4.744-3.587c-2.497-1.266-5.087-1.887-7.755-1.887c-5.29,0-9.579,1.887-12.874,5.681
	c-3.271,3.8-4.905,8.739-4.905,14.821c0,13.99,5.34,27.976,16.015,38.644C211.535,110.848,211.775,111.062,212.008,111.287z
	 M222.726,63.022c-0.603-1.07-1.357-1.942-2.243-2.639c0.3,0.38,0.583,0.784,0.833,1.229c0.936,1.639,1.535,3.85,1.799,6.6h-19.331
	c-0.058,0.458-0.103,0.925-0.12,1.408h20.858C224.26,66.871,223.661,64.66,222.726,63.022z M245.406,54.542v3.244
	c1.923-3.196,5.391-5.328,9.352-5.328c2.635,0,5.044,0.949,6.93,2.522c-2.006-2.402-4.992-3.931-8.338-3.931
	C250.217,51.05,247.403,52.4,245.406,54.542z M278.842,100.475c0.484-0.49,0.949-1.002,1.408-1.518V65.281
	c0-2.519-0.594-4.262-1.766-5.197c-0.166-0.132-0.348-0.233-0.521-0.348c0.579,0.993,0.878,2.369,0.878,4.136L278.842,100.475z
	 M259.709,111.369V66.872c0-2.563-0.275-4.438-0.848-5.626c-0.398-0.774-0.953-1.37-1.647-1.806c0.082,0.129,0.168,0.255,0.24,0.396
	c0.571,1.188,0.846,3.063,0.846,5.626v46.231C258.771,111.596,259.242,111.484,259.709,111.369z M274.016,51.05
	c-4.466,0-8.295,2.718-10,6.609c0.438,0.705,0.801,1.461,1.074,2.26c1.49-4.341,5.549-7.461,10.334-7.461
	c2.631,0,5.041,0.942,6.93,2.511C280.344,52.573,277.357,51.05,274.016,51.05z"/>
<path fill="#333333" d="M221.317,61.506c-1.727-3.063-4.619-4.546-8.65-4.546c-2.914,0-5.334,0.973-7.286,3.079
	c-1.974,2.119-3.008,4.961-3.124,7.961h20.859C222.852,65,222.253,63.145,221.317,61.506z"/>
<path fill="#333333" d="M249.958,5.673c-36.553,0-66.291,29.737-66.291,66.291s29.738,66.292,66.291,66.292
	c36.552,0,66.292-29.738,66.292-66.292C316.25,35.411,286.51,5.673,249.958,5.673z M288.625,110.617
	c-21.35,21.354-55.972,21.354-77.321,0c-10.675-10.668-16.015-24.654-16.015-38.644c0-6.082,1.634-11.021,4.905-14.821
	c3.295-3.794,7.584-5.681,12.874-5.681c2.668,0,5.258,0.621,7.755,1.887c2.513,1.254,4.427,2.887,5.735,4.9
	c1.271,1.897,2.101,3.998,2.524,6.533c0.385,1.742,0.577,4.209,0.577,8.209h-27.667c0.33,12,4.999,23.725,14.04,32.753
	c18.73,18.739,49.12,18.808,67.86,0.069c18.748-18.74,18.748-49.091,0-67.83c-18.729-18.735-49.129-18.718-67.86,0.018
	c-1.266,1.325-3.35,1.333-4.608,0.008c-1.266-1.331-1.266-3.487,0-4.812l0.027-0.052c21.37-21.2,55.867-21.149,77.172,0.154
	C309.973,54.649,309.973,89.275,288.625,110.617z M253.35,51.05c4.785,0,8.842,3.12,10.332,7.461
	c1.49-4.341,5.565-7.461,10.351-7.461c6.049,0,10.968,4.977,10.968,11.118v30.33c-2,2.914-4,5.59-6,7.977V63.872
	c0-2.518-0.674-4.261-1.846-5.196c-1.176-0.941-2.631-1.42-4.318-1.42c-2.312,0-4.469,0.848-6.156,2.509
	c-1.666,1.677-2.68,4.465-2.68,8.387v41.788c-2,0.732-4,1.322-6,1.754V65.462c0-2.563-0.125-4.438-0.695-5.626
	c-0.908-1.759-2.5-2.651-4.953-2.651c-2.222,0-4.259,0.93-6.079,2.794C244.437,61.843,244,65.214,244,70.092v42.033
	c-2-0.316-4-0.805-6-1.457V52.307c0-1.738,1.262-3.146,3-3.146s3,1.409,3,3.146v4.071C246,53.183,249.393,51.05,253.35,51.05z"/>
<g>
	<path fill="#333333" d="M22.798,59.099H8.281v8.125h12.987v2.448H8.281v8.329h14.687v2.448H5.596V56.651h17.202V59.099z"/>
	<path fill="#333333" d="M48.501,80.449v-3.536c-1.428,2.108-3.501,3.909-6.731,3.909c-4.215,0-8.397-3.331-8.397-9.145
		c0-5.779,4.182-9.179,8.397-9.179c3.264,0,5.372,1.768,6.731,3.74V55.631h2.618v24.818H48.501z M42.246,64.844
		c-3.399,0-6.188,2.516-6.188,6.799c0,4.182,2.856,6.833,6.188,6.833c3.264,0,6.357-2.719,6.357-6.833
		C48.604,67.564,45.51,64.844,42.246,64.844z"/>
	<path fill="#333333" d="M81.344,76.98l4.624-14.108h2.72L82.5,80.585h-2.278l-4.726-13.871l-4.759,13.871h-2.312l-6.153-17.712
		h2.788l4.624,14.108l4.725-14.176h2.176L81.344,76.98z"/>
	<path fill="#333333" d="M100.18,66.238l-0.782-2.142c1.938-0.884,3.842-1.461,6.392-1.461c4.793,0,7.479,2.447,7.479,7.071v10.743
		h-2.516v-2.652c-1.224,1.598-3.264,3.025-6.357,3.025c-3.264,0-6.562-1.836-6.562-5.507c0-3.74,3.06-5.711,7.514-5.711
		c2.244,0,3.841,0.306,5.405,0.748V69.74c0-3.162-1.938-4.793-5.235-4.793C103.443,64.946,101.812,65.49,100.18,66.238z
		 M100.486,75.213c0,2.244,2.04,3.536,4.419,3.536c3.23,0,5.882-1.972,5.882-4.76v-1.7c-1.292-0.374-3.026-0.748-5.168-0.748
		C102.322,71.542,100.486,72.97,100.486,75.213z"/>
	<path fill="#333333" d="M128.263,80.449h-2.618V62.873h2.618v4.589c1.292-2.924,3.841-5.031,7.173-4.896v2.822h-0.204
		c-3.842,0-6.969,2.754-6.969,8.057V80.449z"/>
	<path fill="#333333" d="M159.61,80.449v-3.536c-1.428,2.108-3.501,3.909-6.731,3.909c-4.215,0-8.397-3.331-8.397-9.145
		c0-5.779,4.182-9.179,8.397-9.179c3.264,0,5.372,1.768,6.731,3.74V55.631h2.618v24.818H159.61z M153.354,64.844
		c-3.399,0-6.188,2.516-6.188,6.799c0,4.182,2.856,6.833,6.188,6.833c3.264,0,6.357-2.719,6.357-6.833
		C159.712,67.564,156.618,64.844,153.354,64.844z"/>
	<path fill="#333333" d="M349.933,73.922h-0.136l-8.669-12.715v19.243h-2.618V56.651h2.72l8.67,12.986l8.669-12.986h2.72v23.798
		h-2.686V61.173L349.933,73.922z"/>
	<path fill="#333333" d="M371.999,66.238l-0.781-2.142c1.938-0.884,3.841-1.461,6.391-1.461c4.794,0,7.479,2.447,7.479,7.071v10.743
		h-2.516v-2.652c-1.224,1.598-3.264,3.025-6.357,3.025c-3.264,0-6.562-1.836-6.562-5.507c0-3.74,3.06-5.711,7.514-5.711
		c2.243,0,3.842,0.306,5.405,0.748V69.74c0-3.162-1.938-4.793-5.235-4.793C375.263,64.946,373.631,65.49,371.999,66.238z
		 M372.306,75.213c0,2.244,2.039,3.536,4.419,3.536c3.229,0,5.882-1.972,5.882-4.76v-1.7c-1.292-0.374-3.026-0.748-5.168-0.748
		C374.141,71.542,372.306,72.97,372.306,75.213z"/>
	<path fill="#333333" d="M396.682,80.449h-2.617V62.873h2.617v4.589c1.292-2.924,3.842-5.031,7.174-4.896v2.822h-0.204
		c-3.842,0-6.97,2.754-6.97,8.057V80.449z"/>
	<path fill="#333333" d="M417.048,80.789c-2.516,0-5.304-0.986-7.275-2.584l1.326-1.87c1.903,1.429,4.011,2.244,6.085,2.244
		c2.107,0,3.638-1.088,3.638-2.788v-0.068c0-1.768-2.074-2.447-4.386-3.093c-2.754-0.782-5.813-1.734-5.813-4.963v-0.068
		c0-3.026,2.516-5.032,5.983-5.032c2.142,0,4.521,0.748,6.323,1.938l-1.189,1.972c-1.632-1.054-3.502-1.7-5.201-1.7
		c-2.074,0-3.4,1.088-3.4,2.55v0.068c0,1.666,2.176,2.312,4.521,3.026c2.72,0.816,5.644,1.87,5.644,5.031v0.068
		C423.303,78.852,420.549,80.789,417.048,80.789z"/>
	<path fill="#333333" d="M434.183,80.449h-2.617V55.631h2.617v10.301c1.156-1.904,2.992-3.434,6.018-3.434
		c4.25,0,6.731,2.856,6.731,7.037v10.914h-2.617V70.182c0-3.264-1.769-5.303-4.862-5.303c-3.025,0-5.27,2.209-5.27,5.507V80.449z"/>
	<path fill="#333333" d="M456.929,66.238l-0.781-2.142c1.938-0.884,3.841-1.461,6.391-1.461c4.794,0,7.479,2.447,7.479,7.071v10.743
		h-2.516v-2.652c-1.224,1.598-3.264,3.025-6.357,3.025c-3.264,0-6.562-1.836-6.562-5.507c0-3.74,3.06-5.711,7.514-5.711
		c2.243,0,3.842,0.306,5.405,0.748V69.74c0-3.162-1.938-4.793-5.235-4.793C460.192,64.946,458.561,65.49,456.929,66.238z
		 M457.235,75.213c0,2.244,2.039,3.536,4.419,3.536c3.229,0,5.882-1.972,5.882-4.76v-1.7c-1.292-0.374-3.026-0.748-5.168-0.748
		C459.07,71.542,457.235,72.97,457.235,75.213z"/>
	<path fill="#333333" d="M479.232,80.449V55.631h2.617v24.818H479.232z"/>
	<path fill="#333333" d="M491.574,80.449V55.631h2.617v24.818H491.574z"/>
</g>
</svg>
