<?xml version="1.0" encoding="utf-8"?>
<!-- Generator: Adobe Illustrator 16.2.1, SVG Export Plug-In . SVG Version: 6.00 Build 0)  -->
<!DOCTYPE svg PUBLIC "-//W3C//DTD SVG 1.1//EN" "http://www.w3.org/Graphics/SVG/1.1/DTD/svg11.dtd">
<svg version="1.1" id="Layer_1" xmlns="http://www.w3.org/2000/svg" xmlns:xlink="http://www.w3.org/1999/xlink" x="0px" y="0px"
	 width="500px" height="145px" viewBox="0 0 500 145" enable-background="new 0 0 500 145" xml:space="preserve">
<path opacity="0.15" fill="#231F20" enable-background="new    " d="M211.424,38.029c-1.266-1.331-1.266-3.492,0-4.817l0.027-0.055
	c21.37-21.2,55.867-21.15,77.172,0.153c0.232,0.232,0.447,0.474,0.674,0.709c-21.354-20.59-55.309-20.416-76.439,0.544l-0.027,0.056
	c-1.044,1.093-1.212,2.75-0.533,4.046C211.983,38.504,211.683,38.302,211.424,38.029z M240.852,49.161
	c-1.738,0-3.146,1.408-3.146,3.146v58.361c0.465,0.146,0.936,0.284,1.408,0.415V53.715c0-1.737,1.408-3.146,3.146-3.146
	c0.504,0,0.974,0.129,1.396,0.34C243.141,49.877,242.085,49.161,240.852,49.161z M285.301,107.298
	c18.748-18.741,18.748-49.125,0-67.862c-0.238-0.239-0.486-0.461-0.729-0.694c18.054,18.788,17.836,48.644-0.68,67.15
	c-18.506,18.506-48.363,18.725-67.143,0.682c0.231,0.24,0.453,0.486,0.689,0.724C236.17,126.04,266.559,126.04,285.301,107.298z
	 M212.008,111.287c-10.196-10.572-15.312-24.232-15.312-37.908c0-6.082,1.633-11.02,4.905-14.821
	c3.294-3.795,7.584-5.681,12.874-5.681c2.667,0,5.258,0.621,7.754,1.886c1.265,0.631,2.376,1.359,3.337,2.182
	c-1.223-1.421-2.803-2.619-4.744-3.587c-2.497-1.266-5.087-1.887-7.755-1.887c-5.29,0-9.579,1.887-12.874,5.681
	c-3.271,3.8-4.905,8.739-4.905,14.821c0,13.99,5.34,27.976,16.015,38.644C211.535,110.848,211.775,111.062,212.008,111.287z
	 M222.726,63.022c-0.603-1.07-1.357-1.942-2.243-2.639c0.3,0.38,0.583,0.784,0.833,1.229c0.936,1.639,1.535,3.85,1.799,6.6h-19.331
	c-0.058,0.458-0.103,0.925-0.12,1.408h20.858C224.26,66.871,223.661,64.66,222.726,63.022z M245.406,54.542v3.244
	c1.923-3.196,5.391-5.328,9.352-5.328c2.635,0,5.044,0.949,6.93,2.522c-2.006-2.402-4.992-3.931-8.338-3.931
	C250.217,51.05,247.403,52.4,245.406,54.542z M278.842,100.475c0.484-0.49,0.949-1.002,1.408-1.518V65.281
	c0-2.519-0.594-4.262-1.766-5.197c-0.166-0.132-0.348-0.233-0.521-0.348c0.579,0.993,0.878,2.369,0.878,4.136L278.842,100.475z
	 M259.709,111.369V66.872c0-2.563-0.275-4.438-0.848-5.626c-0.398-0.774-0.953-1.37-1.647-1.806c0.082,0.129,0.168,0.255,0.24,0.396
	c0.571,1.188,0.846,3.063,0.846,5.626v46.231C258.771,111.596,259.242,111.484,259.709,111.369z M274.016,51.05
	c-4.466,0-8.295,2.718-10,6.609c0.438,0.705,0.801,1.461,1.074,2.26c1.49-4.341,5.549-7.461,10.334-7.461
	c2.631,0,5.041,0.942,6.93,2.511C280.344,52.573,277.357,51.05,274.016,51.05z"/>
<path fill="#333333" d="M223.116,68h-20.859c0.116-3,1.15-5.842,3.124-7.961c1.952-2.106,4.372-3.079,7.286-3.079
	c4.031,0,6.923,1.483,8.65,4.546C222.253,63.145,222.852,65,223.116,68z M316.25,71.964c0,36.554-29.74,66.292-66.292,66.292
	c-36.553,0-66.291-29.738-66.291-66.292s29.738-66.291,66.291-66.291C286.51,5.673,316.25,35.411,316.25,71.964z M288.623,33.308
	c-21.305-21.303-55.802-21.354-77.172-0.154l-0.027,0.052c-1.266,1.325-1.266,3.481,0,4.812c1.258,1.325,3.342,1.317,4.608-0.008
	c18.731-18.736,49.131-18.753,67.86-0.018c18.748,18.739,18.748,49.09,0,67.83c-18.74,18.739-49.13,18.67-67.86-0.069
	C206.991,96.725,202.322,85,201.992,73h27.667c0-4-0.192-6.467-0.577-8.209c-0.423-2.535-1.253-4.636-2.524-6.533
	c-1.308-2.013-3.222-3.646-5.735-4.9c-2.497-1.266-5.087-1.887-7.755-1.887c-5.29,0-9.579,1.887-12.874,5.681
	c-3.271,3.8-4.905,8.739-4.905,14.821c0,13.99,5.34,27.976,16.015,38.644c21.349,21.354,55.971,21.354,77.321,0
	C309.973,89.275,309.973,54.649,288.623,33.308z M244,56.378v-4.071c0-1.737-1.262-3.146-3-3.146c-1.738,0-3,1.408-3,3.146v58.361
	c2,0.652,4,1.141,6,1.457V70.092c0-4.878,0.437-8.249,2.273-10.113c1.82-1.864,3.857-2.794,6.079-2.794
	c2.453,0,4.045,0.892,4.953,2.651c0.57,1.188,0.695,3.063,0.695,5.626v46.231c2-0.432,4-1.021,6-1.754V68.152
	c0-3.922,1.013-6.71,2.679-8.387c1.688-1.661,3.844-2.509,6.157-2.509c1.688,0,3.143,0.479,4.318,1.42
	c1.172,0.935,1.846,2.678,1.846,5.196v36.603c2-2.387,4-5.063,6-7.977v-30.33c0-6.141-4.919-11.118-10.968-11.118
	c-4.785,0-8.86,3.12-10.351,7.461c-1.49-4.341-5.546-7.461-10.331-7.461C249.393,51.05,246,53.183,244,56.378z M10,70h13v-3H10v-8
	h14v-2H7v23h18v-2H10V70z M50,56h3v24h-3v-3.102c-2,2.095-3.51,3.886-6.719,3.886c-4.189,0-8.376-3.312-8.376-9.088
	c0-5.743,4.176-9.121,8.366-9.121c3.243,0,5.729,1.757,6.729,3.716V56z M50.019,71.662c0.001-4.054-3.074-6.756-6.317-6.756
	c-3.378,0-6.148,2.5-6.148,6.756c0,4.154,2.838,6.791,6.148,6.791C46.945,78.453,50.019,75.75,50.019,71.662z M82.557,77.054
	L77.829,63h-2.162l-4.696,14.054L66.376,63h-2.77l6.114,18h2.298l4.729-13.783L81.442,81h2.264l6.148-18h-2.702L82.557,77.054z
	 M114,69.737V80h-2v-2.223c-1,1.588-3.324,3.007-6.398,3.007c-3.243,0-6.602-1.825-6.602-5.474c0-3.719,3.095-5.678,7.52-5.678
	c2.23,0,3.48,0.304,5.48,0.743V69.77c0-3.142-2.052-4.764-5.329-4.764c-2.061,0.001-3.809,0.542-5.431,1.285l-0.812-2.128
	c1.926-0.879,3.747-1.453,6.281-1.453C111.473,62.71,114,65.143,114,69.737z M112,72.307c-1-0.373-3.075-0.744-5.204-0.744
	c-3.277-0.001-5.17,1.417-5.17,3.647s2.072,3.513,4.438,3.513c3.209,0,5.936-1.959,5.936-4.729V72.307z M129,67.507V63h-2v17h2
	v-6.546c0-5.271,3.294-8.454,7.111-8.454H136v-2.357C133,62.508,130,64.602,129,67.507z M160,56h3v24h-3v-3.102
	c-1,2.095-3.353,3.886-6.562,3.886c-4.189,0-8.219-3.312-8.219-9.088c0-5.743,4.071-9.121,8.261-9.121
	c3.243,0,5.52,1.757,6.52,3.716V56z M160.437,71.662c0.001-4.054-3.074-6.756-6.317-6.756c-3.378,0-6.148,2.5-6.148,6.756
	c0,4.154,2.838,6.791,6.148,6.791C157.363,78.453,160.437,75.75,160.437,71.662z M349.441,69.904L340.827,57H338v23h3V61.291
	L349.341,74h0.136L358,61.258V80h3V57h-2.943L349.441,69.904z M384,69.737V80h-2v-2.223c-1,1.588-3.275,3.007-6.346,3.007
	c-3.244,0-6.554-1.825-6.554-5.474c0-3.719,3.061-5.678,7.486-5.678c2.229,0,3.413,0.304,5.413,0.743V69.77
	c0-3.142-1.993-4.764-5.271-4.764c-2.066,0.001-3.754,0.542-5.375,1.285l-0.829-2.128c1.926-0.879,3.713-1.453,6.248-1.453
	C381.539,62.71,384,65.143,384,69.737z M382,72.307c-1-0.373-3.029-0.744-5.156-0.744c-3.277-0.001-5.121,1.417-5.121,3.647
	s2.039,3.513,4.404,3.513c3.211,0,5.873-1.959,5.873-4.729V72.307z M396,67.507V63h-3v17h3v-6.546c0-5.271,3.046-8.454,6.864-8.454
	H403v-2.357C400,62.508,397,64.602,396,67.507z M416.443,70.448c-2.33-0.709-4.443-1.352-4.443-3.007v-0.067
	c0-1.452,1.46-2.533,3.522-2.533c1.69,0,3.618,0.641,5.241,1.688l1.217-1.959c-1.789-1.183-4.029-1.926-6.157-1.926
	c-3.446,0-5.823,1.993-5.823,5v0.067c0,3.209,2.975,4.158,5.711,4.934c2.295,0.641,4.289,1.316,4.289,3.072v0.068
	c0,1.689-1.556,2.771-3.653,2.771c-2.061,0-4.172-0.811-6.066-2.229l-1.324,1.856c1.958,1.588,4.53,2.566,7.03,2.566
	c3.48,0,6.014-1.926,6.014-5.236v-0.065C422,72.307,419.146,71.259,416.443,70.448z M439.145,62.575
	c-3.006,0-5.145,1.519-6.145,3.412V56h-2v24h2v-9.588c0-3.277,2.194-5.473,5.203-5.473c3.072,0,4.797,2.028,4.797,5.271V80h3V69.568
	C446,65.413,443.371,62.575,439.145,62.575z M469,69.737V80h-3v-2.223c-1,1.588-3.123,3.007-6.198,3.007
	c-3.242,0-6.399-1.825-6.399-5.474c0-3.719,2.959-5.678,7.386-5.678c2.229,0,4.212,0.304,5.212,0.743V69.77
	c0-3.142-1.757-4.764-5.031-4.764c-2.066,0.001-3.518,0.542-5.139,1.285l-0.752-2.128c1.926-0.879,3.859-1.453,6.396-1.453
	C466.242,62.71,469,65.143,469,69.737z M466,72.307c-1-0.373-2.877-0.744-5.004-0.744c-3.277-0.001-4.972,1.417-4.972,3.647
	s1.938,3.513,4.305,3.513c3.21,0,5.671-1.959,5.671-4.729V72.307z M478,80h3V56h-3V80z M490,56v24h3V56H490z"/>
</svg>
